<svg width="171" height="49" viewBox="0 0 171 49" fill="none" xmlns="http://www.w3.org/2000/svg">
<rect width="171" height="49" rx="12" fill="#212121"/>
<path d="M40.05 32.78C39.07 33.73 38 33.58 36.97 33.13C35.88 32.67 34.88 32.65 33.73 33.13C32.29 33.75 31.53 33.57 30.67 32.78C25.79 27.75 26.51 20.09 32.05 19.81C33.4 19.88 34.34 20.55 35.13 20.61C36.31 20.37 37.44 19.68 38.7 19.77C40.21 19.89 41.35 20.49 42.1 21.57C38.98 23.44 39.72 27.55 42.58 28.7C42.01 30.2 41.27 31.69 40.04 32.79L40.05 32.78ZM35.03 19.75C34.88 17.52 36.69 15.68 38.77 15.5C39.06 18.08 36.43 20 35.03 19.75Z" fill="#EEF2FF"/>
<path d="M58.73 17.08C58.0033 17.08 57.3967 16.9267 56.91 16.62C56.43 16.3067 56.07 15.88 55.83 15.34C55.5967 14.7933 55.48 14.17 55.48 13.47C55.48 12.7767 55.6 12.16 55.84 11.62C56.08 11.0733 56.44 10.6433 56.92 10.33C57.4067 10.01 58.0167 9.85 58.75 9.85C59.27 9.85 59.7167 9.93333 60.09 10.1C60.47 10.26 60.7767 10.4833 61.01 10.77C61.2433 11.0567 61.4033 11.3933 61.49 11.78H60.61C60.51 11.4333 60.2933 11.1567 59.96 10.95C59.6333 10.7433 59.22 10.64 58.72 10.64C58.16 10.64 57.7067 10.7733 57.36 11.04C57.02 11.3 56.77 11.6433 56.61 12.07C56.45 12.49 56.37 12.9467 56.37 13.44C56.37 13.96 56.4533 14.4367 56.62 14.87C56.7867 15.3033 57.0467 15.65 57.4 15.91C57.7533 16.1633 58.2033 16.29 58.75 16.29C59.0833 16.29 59.38 16.2433 59.64 16.15C59.9067 16.0567 60.1267 15.9233 60.3 15.75C60.48 15.5767 60.6033 15.3767 60.67 15.15H61.62C61.52 15.5367 61.34 15.8767 61.08 16.17C60.8267 16.4567 60.5033 16.68 60.11 16.84C59.7167 17 59.2567 17.08 58.73 17.08ZM64.811 17.06C64.2577 17.06 63.7943 16.9467 63.421 16.72C63.0477 16.4867 62.7677 16.1667 62.581 15.76C62.401 15.3533 62.311 14.89 62.311 14.37C62.311 13.8433 62.4043 13.38 62.591 12.98C62.7777 12.5733 63.0577 12.2533 63.431 12.02C63.8043 11.7867 64.271 11.67 64.831 11.67C65.3843 11.67 65.8443 11.7867 66.211 12.02C66.5843 12.2533 66.861 12.5733 67.041 12.98C67.2277 13.38 67.321 13.8433 67.321 14.37C67.321 14.89 67.2277 15.3533 67.041 15.76C66.8543 16.1667 66.5743 16.4867 66.201 16.72C65.8343 16.9467 65.371 17.06 64.811 17.06ZM64.811 16.31C65.1977 16.31 65.511 16.2233 65.751 16.05C65.9977 15.8767 66.1777 15.6433 66.291 15.35C66.411 15.0567 66.471 14.73 66.471 14.37C66.471 14.01 66.411 13.6833 66.291 13.39C66.1777 13.0967 65.9977 12.8633 65.751 12.69C65.511 12.5167 65.1977 12.43 64.811 12.43C64.431 12.43 64.1177 12.5167 63.871 12.69C63.631 12.8633 63.451 13.0967 63.331 13.39C63.2177 13.6833 63.161 14.01 63.161 14.37C63.161 14.73 63.2177 15.0567 63.331 15.35C63.451 15.6433 63.631 15.8767 63.871 16.05C64.1177 16.2233 64.431 16.31 64.811 16.31ZM68.2583 17V11.73H69.0783L69.1183 12.36C69.2316 12.2 69.3583 12.07 69.4983 11.97C69.6449 11.87 69.8049 11.7967 69.9783 11.75C70.1583 11.6967 70.3483 11.67 70.5483 11.67C70.9149 11.67 71.2116 11.75 71.4383 11.91C71.6649 12.0633 71.8349 12.2667 71.9483 12.52C72.0683 12.34 72.2049 12.1867 72.3583 12.06C72.5183 11.9333 72.6949 11.8367 72.8883 11.77C73.0883 11.7033 73.3083 11.67 73.5483 11.67C73.9349 11.67 74.2449 11.7533 74.4783 11.92C74.7183 12.0867 74.8916 12.3133 74.9983 12.6C75.1049 12.88 75.1583 13.1967 75.1583 13.55V17H74.3083V13.98C74.3083 13.8067 74.2983 13.63 74.2783 13.45C74.2649 13.27 74.2249 13.1033 74.1583 12.95C74.0916 12.79 73.9916 12.6633 73.8583 12.57C73.7316 12.47 73.5516 12.42 73.3183 12.42C73.0983 12.42 72.9116 12.4733 72.7583 12.58C72.6116 12.68 72.4916 12.8167 72.3983 12.99C72.3049 13.1633 72.2383 13.35 72.1983 13.55C72.1583 13.7433 72.1383 13.9367 72.1383 14.13V17H71.2883V13.97C71.2883 13.8033 71.2783 13.63 71.2583 13.45C71.2449 13.27 71.2083 13.1033 71.1483 12.95C71.0949 12.79 71.0016 12.6633 70.8683 12.57C70.7416 12.47 70.5649 12.42 70.3383 12.42C70.0183 12.42 69.7683 12.5133 69.5883 12.7C69.4083 12.88 69.2816 13.1033 69.2083 13.37C69.1416 13.63 69.1083 13.8867 69.1083 14.14V17H68.2583ZM76.2516 17V11.73H77.1016V17H76.2516ZM76.6716 10.95C76.4983 10.95 76.3583 10.8967 76.2516 10.79C76.1516 10.6833 76.1016 10.5467 76.1016 10.38C76.1016 10.2133 76.155 10.08 76.2616 9.98C76.3683 9.87333 76.505 9.82 76.6716 9.82C76.825 9.82 76.9583 9.87333 77.0716 9.98C77.1916 10.0867 77.2516 10.22 77.2516 10.38C77.2516 10.5467 77.195 10.6833 77.0816 10.79C76.9683 10.8967 76.8316 10.95 76.6716 10.95ZM78.2391 17V11.73H79.0591L79.0991 12.53C79.2191 12.3367 79.3725 12.1767 79.5591 12.05C79.7458 11.9233 79.9491 11.83 80.1691 11.77C80.3958 11.7033 80.6158 11.67 80.8291 11.67C81.3425 11.67 81.7425 11.7767 82.0291 11.99C82.3225 12.2033 82.5291 12.4933 82.6491 12.86C82.7758 13.22 82.8391 13.63 82.8391 14.09V17H81.9891V14.32C81.9891 14.0733 81.9725 13.8367 81.9391 13.61C81.9125 13.3833 81.8525 13.18 81.7591 13C81.6725 12.82 81.5458 12.68 81.3791 12.58C81.2125 12.4733 80.9891 12.42 80.7091 12.42C80.3625 12.42 80.0658 12.5167 79.8191 12.71C79.5791 12.9033 79.3958 13.1633 79.2691 13.49C79.1491 13.8167 79.0891 14.1833 79.0891 14.59V17H78.2391ZM86.2373 19.36C85.8773 19.36 85.544 19.3033 85.2373 19.19C84.9307 19.0833 84.6707 18.9133 84.4573 18.68C84.244 18.4467 84.1007 18.15 84.0273 17.79H84.9073C84.9607 17.99 85.0607 18.15 85.2073 18.27C85.354 18.39 85.524 18.4733 85.7173 18.52C85.9107 18.5733 86.1007 18.6 86.2873 18.6C86.6473 18.6 86.9373 18.5267 87.1573 18.38C87.384 18.24 87.5473 18.0433 87.6473 17.79C87.7473 17.5433 87.7973 17.26 87.7973 16.94V16.21C87.684 16.41 87.534 16.5733 87.3473 16.7C87.1607 16.8267 86.9573 16.92 86.7373 16.98C86.5173 17.0333 86.2907 17.06 86.0573 17.06C85.524 17.06 85.0873 16.9433 84.7473 16.71C84.4073 16.47 84.154 16.15 83.9873 15.75C83.8273 15.3433 83.7473 14.8867 83.7473 14.38C83.7473 13.8733 83.8307 13.4167 83.9973 13.01C84.164 12.5967 84.4207 12.27 84.7673 12.03C85.114 11.79 85.5573 11.67 86.0973 11.67C86.404 11.67 86.714 11.7267 87.0273 11.84C87.3407 11.9533 87.5973 12.1367 87.7973 12.39L87.8373 11.73H88.6473V16.96C88.6473 17.4533 88.5573 17.88 88.3773 18.24C88.204 18.6 87.9373 18.8767 87.5773 19.07C87.224 19.2633 86.7773 19.36 86.2373 19.36ZM86.1773 16.31C86.5307 16.31 86.8273 16.22 87.0673 16.04C87.3073 15.86 87.4907 15.62 87.6173 15.32C87.744 15.02 87.8073 14.6933 87.8073 14.34C87.8073 13.9733 87.744 13.6467 87.6173 13.36C87.4973 13.0733 87.3173 12.8467 87.0773 12.68C86.8373 12.5133 86.534 12.43 86.1673 12.43C85.7873 12.43 85.4807 12.5167 85.2473 12.69C85.0207 12.8633 84.854 13.0967 84.7473 13.39C84.6473 13.6833 84.5973 14.01 84.5973 14.37C84.5973 14.7433 84.6507 15.0767 84.7573 15.37C84.864 15.6633 85.034 15.8933 85.2673 16.06C85.5007 16.2267 85.804 16.31 86.1773 16.31ZM95.0278 17.08C94.5811 17.08 94.1578 17.02 93.7578 16.9C93.3645 16.7733 93.0278 16.57 92.7478 16.29C92.4678 16.0033 92.2778 15.6233 92.1778 15.15H93.0878C93.1811 15.45 93.3311 15.6833 93.5378 15.85C93.7511 16.0167 93.9945 16.1333 94.2678 16.2C94.5411 16.26 94.8145 16.29 95.0878 16.29C95.3611 16.29 95.6145 16.2533 95.8478 16.18C96.0878 16.1 96.2811 15.9733 96.4278 15.8C96.5811 15.6267 96.6578 15.4033 96.6578 15.13C96.6578 14.9167 96.6178 14.7433 96.5378 14.61C96.4645 14.4767 96.3578 14.37 96.2178 14.29C96.0845 14.2033 95.9245 14.1333 95.7378 14.08C95.4911 14 95.2278 13.9333 94.9478 13.88C94.6678 13.8267 94.3911 13.7633 94.1178 13.69C93.8511 13.6167 93.6011 13.5233 93.3678 13.41C93.2411 13.3433 93.1178 13.2633 92.9978 13.17C92.8845 13.07 92.7845 12.9567 92.6978 12.83C92.6178 12.6967 92.5511 12.5467 92.4978 12.38C92.4511 12.2133 92.4278 12.03 92.4278 11.83C92.4278 11.53 92.4745 11.27 92.5678 11.05C92.6611 10.83 92.7878 10.6433 92.9478 10.49C93.1078 10.3367 93.2945 10.2133 93.5078 10.12C93.7211 10.0267 93.9478 9.96 94.1878 9.92C94.4345 9.87333 94.6811 9.85 94.9278 9.85C95.3345 9.85 95.7145 9.91333 96.0678 10.04C96.4278 10.16 96.7245 10.3567 96.9578 10.63C97.1978 10.9033 97.3278 11.2733 97.3478 11.74H96.4978C96.4645 11.46 96.3711 11.24 96.2178 11.08C96.0645 10.92 95.8745 10.8067 95.6478 10.74C95.4211 10.6733 95.1811 10.64 94.9278 10.64C94.7411 10.64 94.5511 10.6567 94.3578 10.69C94.1711 10.7233 93.9978 10.7833 93.8378 10.87C93.6845 10.95 93.5611 11.0633 93.4678 11.21C93.3745 11.35 93.3278 11.53 93.3278 11.75C93.3278 11.9233 93.3578 12.0767 93.4178 12.21C93.4845 12.3433 93.5711 12.4567 93.6778 12.55C93.7911 12.6367 93.9145 12.71 94.0478 12.77C94.3678 12.9033 94.7211 13.0033 95.1078 13.07C95.5011 13.13 95.8678 13.22 96.2078 13.34C96.4078 13.4067 96.5911 13.49 96.7578 13.59C96.9245 13.69 97.0645 13.8067 97.1778 13.94C97.2978 14.0733 97.3878 14.2267 97.4478 14.4C97.5145 14.5667 97.5478 14.7567 97.5478 14.97C97.5478 15.3567 97.4811 15.6867 97.3478 15.96C97.2145 16.2267 97.0311 16.4433 96.7978 16.61C96.5645 16.7767 96.2945 16.8967 95.9878 16.97C95.6878 17.0433 95.3678 17.08 95.0278 17.08ZM100.901 17.06C100.348 17.06 99.8846 16.9467 99.5113 16.72C99.1379 16.4867 98.8579 16.1667 98.6713 15.76C98.4913 15.3533 98.4013 14.89 98.4013 14.37C98.4013 13.8433 98.4946 13.38 98.6813 12.98C98.8679 12.5733 99.1479 12.2533 99.5213 12.02C99.8946 11.7867 100.361 11.67 100.921 11.67C101.475 11.67 101.935 11.7867 102.301 12.02C102.675 12.2533 102.951 12.5733 103.131 12.98C103.318 13.38 103.411 13.8433 103.411 14.37C103.411 14.89 103.318 15.3533 103.131 15.76C102.945 16.1667 102.665 16.4867 102.291 16.72C101.925 16.9467 101.461 17.06 100.901 17.06ZM100.901 16.31C101.288 16.31 101.601 16.2233 101.841 16.05C102.088 15.8767 102.268 15.6433 102.381 15.35C102.501 15.0567 102.561 14.73 102.561 14.37C102.561 14.01 102.501 13.6833 102.381 13.39C102.268 13.0967 102.088 12.8633 101.841 12.69C101.601 12.5167 101.288 12.43 100.901 12.43C100.521 12.43 100.208 12.5167 99.9613 12.69C99.7213 12.8633 99.5413 13.0967 99.4213 13.39C99.3079 13.6833 99.2513 14.01 99.2513 14.37C99.2513 14.73 99.3079 15.0567 99.4213 15.35C99.5413 15.6433 99.7213 15.8767 99.9613 16.05C100.208 16.2233 100.521 16.31 100.901 16.31ZM106.649 17.06C106.095 17.06 105.632 16.9467 105.259 16.72C104.885 16.4867 104.605 16.1667 104.419 15.76C104.239 15.3533 104.149 14.89 104.149 14.37C104.149 13.8433 104.242 13.38 104.429 12.98C104.615 12.5733 104.895 12.2533 105.269 12.02C105.642 11.7867 106.109 11.67 106.669 11.67C107.222 11.67 107.682 11.7867 108.049 12.02C108.422 12.2533 108.699 12.5733 108.879 12.98C109.065 13.38 109.159 13.8433 109.159 14.37C109.159 14.89 109.065 15.3533 108.879 15.76C108.692 16.1667 108.412 16.4867 108.039 16.72C107.672 16.9467 107.209 17.06 106.649 17.06ZM106.649 16.31C107.035 16.31 107.349 16.2233 107.589 16.05C107.835 15.8767 108.015 15.6433 108.129 15.35C108.249 15.0567 108.309 14.73 108.309 14.37C108.309 14.01 108.249 13.6833 108.129 13.39C108.015 13.0967 107.835 12.8633 107.589 12.69C107.349 12.5167 107.035 12.43 106.649 12.43C106.269 12.43 105.955 12.5167 105.709 12.69C105.469 12.8633 105.289 13.0967 105.169 13.39C105.055 13.6833 104.999 14.01 104.999 14.37C104.999 14.73 105.055 15.0567 105.169 15.35C105.289 15.6433 105.469 15.8767 105.709 16.05C105.955 16.2233 106.269 16.31 106.649 16.31ZM110.096 17V11.73H110.916L110.956 12.53C111.076 12.3367 111.229 12.1767 111.416 12.05C111.602 11.9233 111.806 11.83 112.026 11.77C112.252 11.7033 112.472 11.67 112.686 11.67C113.199 11.67 113.599 11.7767 113.886 11.99C114.179 12.2033 114.386 12.4933 114.506 12.86C114.632 13.22 114.696 13.63 114.696 14.09V17H113.846V14.32C113.846 14.0733 113.829 13.8367 113.796 13.61C113.769 13.3833 113.709 13.18 113.616 13C113.529 12.82 113.402 12.68 113.236 12.58C113.069 12.4733 112.846 12.42 112.566 12.42C112.219 12.42 111.922 12.5167 111.676 12.71C111.436 12.9033 111.252 13.1633 111.126 13.49C111.006 13.8167 110.946 14.1833 110.946 14.59V17H110.096Z" fill="#EEF2FF"/>
<path d="M55.064 37L59.4 25.688H61.784L66.104 37H63.944L63.192 34.904H57.976L57.208 37H55.064ZM58.616 33.096H62.536L60.584 27.704L58.616 33.096ZM66.7959 40.104V28.568H68.6199L68.7159 29.704C69.0465 29.2667 69.4412 28.9467 69.8999 28.744C70.3585 28.5413 70.8652 28.44 71.4199 28.44C72.2519 28.44 72.9399 28.632 73.4839 29.016C74.0279 29.4 74.4332 29.9173 74.6999 30.568C74.9665 31.2187 75.0999 31.9547 75.0999 32.776C75.0999 33.5973 74.9612 34.3387 74.6839 35C74.4065 35.6507 73.9852 36.168 73.4199 36.552C72.8652 36.9253 72.1665 37.112 71.3239 37.112C70.9292 37.112 70.5665 37.0693 70.2359 36.984C69.9159 36.8987 69.6279 36.776 69.3719 36.616C69.1265 36.456 68.9185 36.2747 68.7479 36.072V40.104H66.7959ZM71.0199 35.352C71.5639 35.352 71.9905 35.2347 72.2999 35C72.6092 34.7547 72.8332 34.44 72.9719 34.056C73.1105 33.6613 73.1799 33.2453 73.1799 32.808C73.1799 32.3493 73.1052 31.9227 72.9559 31.528C72.8172 31.1333 72.5879 30.8133 72.2679 30.568C71.9479 30.3227 71.5212 30.2 70.9879 30.2C70.4972 30.2 70.0812 30.3227 69.7399 30.568C69.4092 30.8027 69.1585 31.1173 68.9879 31.512C68.8172 31.9067 68.7319 32.3333 68.7319 32.792C68.7319 33.2613 68.8119 33.6933 68.9719 34.088C69.1319 34.472 69.3825 34.7813 69.7239 35.016C70.0652 35.24 70.4972 35.352 71.0199 35.352ZM76.3509 40.104V28.568H78.1749L78.2709 29.704C78.6015 29.2667 78.9962 28.9467 79.4549 28.744C79.9135 28.5413 80.4202 28.44 80.9749 28.44C81.8069 28.44 82.4949 28.632 83.0389 29.016C83.5829 29.4 83.9882 29.9173 84.2549 30.568C84.5215 31.2187 84.6549 31.9547 84.6549 32.776C84.6549 33.5973 84.5162 34.3387 84.2389 35C83.9615 35.6507 83.5402 36.168 82.9749 36.552C82.4202 36.9253 81.7215 37.112 80.8789 37.112C80.4842 37.112 80.1215 37.0693 79.7909 36.984C79.4709 36.8987 79.1829 36.776 78.9269 36.616C78.6815 36.456 78.4735 36.2747 78.3029 36.072V40.104H76.3509ZM80.5749 35.352C81.1189 35.352 81.5455 35.2347 81.8549 35C82.1642 34.7547 82.3882 34.44 82.5269 34.056C82.6655 33.6613 82.7349 33.2453 82.7349 32.808C82.7349 32.3493 82.6602 31.9227 82.5109 31.528C82.3722 31.1333 82.1429 30.8133 81.8229 30.568C81.5029 30.3227 81.0762 30.2 80.5429 30.2C80.0522 30.2 79.6362 30.3227 79.2949 30.568C78.9642 30.8027 78.7135 31.1173 78.5429 31.512C78.3722 31.9067 78.2869 32.3333 78.2869 32.792C78.2869 33.2613 78.3669 33.6933 78.5269 34.088C78.6869 34.472 78.9375 34.7813 79.2789 35.016C79.6202 35.24 80.0522 35.352 80.5749 35.352ZM89.1379 37.112C88.7325 37.112 88.3272 37.0693 87.9219 36.984C87.5272 36.8987 87.1539 36.76 86.8019 36.568C86.4499 36.3653 86.1565 36.0933 85.9219 35.752C85.6872 35.4107 85.5325 34.984 85.4579 34.472H87.4259C87.5112 34.7067 87.6445 34.8987 87.8259 35.048C88.0179 35.1867 88.2365 35.2933 88.4819 35.368C88.7379 35.432 88.9885 35.464 89.2339 35.464C89.3832 35.464 89.5432 35.4533 89.7139 35.432C89.8952 35.4107 90.0605 35.368 90.2099 35.304C90.3699 35.24 90.4979 35.1493 90.5939 35.032C90.6899 34.904 90.7379 34.7387 90.7379 34.536C90.7379 34.344 90.6845 34.1947 90.5779 34.088C90.4712 33.9707 90.3272 33.88 90.1459 33.816C89.9645 33.7413 89.7459 33.6827 89.4899 33.64C89.0312 33.544 88.5405 33.4427 88.0179 33.336C87.4952 33.2187 87.0419 33.0373 86.6579 32.792C86.4979 32.696 86.3592 32.584 86.2419 32.456C86.1245 32.328 86.0232 32.1893 85.9379 32.04C85.8632 31.88 85.8045 31.7093 85.7619 31.528C85.7299 31.3467 85.7139 31.1493 85.7139 30.936C85.7139 30.488 85.8045 30.1093 85.9859 29.8C86.1779 29.48 86.4285 29.224 86.7379 29.032C87.0579 28.8293 87.4205 28.68 87.8259 28.584C88.2312 28.488 88.6472 28.44 89.0739 28.44C89.6499 28.44 90.1725 28.5307 90.6419 28.712C91.1112 28.8933 91.5005 29.1707 91.8099 29.544C92.1299 29.9173 92.3219 30.392 92.3859 30.968H90.5299C90.4765 30.7013 90.3112 30.488 90.0339 30.328C89.7672 30.168 89.4259 30.088 89.0099 30.088C88.8605 30.088 88.7059 30.104 88.5459 30.136C88.3859 30.1573 88.2312 30.2 88.0819 30.264C87.9432 30.3173 87.8259 30.4027 87.7299 30.52C87.6445 30.6373 87.6019 30.7813 87.6019 30.952C87.6019 31.112 87.6392 31.2507 87.7139 31.368C87.7992 31.4853 87.9219 31.5867 88.0819 31.672C88.2525 31.7467 88.4499 31.8107 88.6739 31.864C89.0365 31.9387 89.4152 32.0133 89.8099 32.088C90.2045 32.1627 90.5459 32.2373 90.8339 32.312C91.1752 32.408 91.4845 32.5467 91.7619 32.728C92.0392 32.8987 92.2525 33.128 92.4019 33.416C92.5619 33.6933 92.6419 34.0507 92.6419 34.488C92.6419 35 92.5352 35.4267 92.3219 35.768C92.1192 36.1093 91.8472 36.376 91.5059 36.568C91.1645 36.76 90.7859 36.8987 90.3699 36.984C89.9539 37.0693 89.5432 37.112 89.1379 37.112ZM97.1178 37.096C96.1898 37.096 95.5124 36.84 95.0858 36.328C94.6591 35.816 94.4458 35.1067 94.4458 34.2V30.296H93.1498V28.568H94.4458V26.2H96.3978V28.568H98.9578V30.296H96.3978V33.832C96.3978 34.1093 96.4298 34.36 96.4938 34.584C96.5578 34.808 96.6751 34.984 96.8458 35.112C97.0164 35.24 97.2511 35.3093 97.5498 35.32C97.8058 35.32 98.0244 35.2773 98.2058 35.192C98.3871 35.1067 98.5364 35.0107 98.6538 34.904L99.3098 36.392C99.1071 36.5627 98.8778 36.7013 98.6218 36.808C98.3764 36.9147 98.1258 36.9893 97.8698 37.032C97.6138 37.0747 97.3631 37.096 97.1178 37.096ZM103.903 37.112C103.039 37.112 102.292 36.936 101.663 36.584C101.044 36.232 100.564 35.7307 100.223 35.08C99.8925 34.4293 99.7271 33.6667 99.7271 32.792C99.7271 31.9067 99.8978 31.144 100.239 30.504C100.58 29.8533 101.06 29.3467 101.679 28.984C102.298 28.6213 103.039 28.44 103.903 28.44C104.756 28.44 105.492 28.6213 106.111 28.984C106.73 29.3467 107.204 29.8587 107.535 30.52C107.866 31.1707 108.031 31.9387 108.031 32.824C108.031 33.688 107.866 34.4453 107.535 35.096C107.215 35.736 106.746 36.232 106.127 36.584C105.508 36.936 104.767 37.112 103.903 37.112ZM103.887 35.336C104.42 35.336 104.847 35.2187 105.167 34.984C105.498 34.7493 105.738 34.44 105.887 34.056C106.036 33.672 106.111 33.256 106.111 32.808C106.111 32.36 106.036 31.9387 105.887 31.544C105.738 31.1493 105.498 30.8347 105.167 30.6C104.847 30.3547 104.42 30.232 103.887 30.232C103.354 30.232 102.922 30.3547 102.591 30.6C102.26 30.8347 102.02 31.1493 101.871 31.544C101.722 31.928 101.647 32.3493 101.647 32.808C101.647 33.256 101.722 33.6773 101.871 34.072C102.031 34.456 102.271 34.7653 102.591 35C102.922 35.224 103.354 35.336 103.887 35.336ZM109.274 37V28.568H111.05L111.162 29.672C111.375 29.352 111.615 29.1067 111.882 28.936C112.159 28.7547 112.453 28.6267 112.762 28.552C113.082 28.4773 113.402 28.44 113.722 28.44C113.839 28.44 113.946 28.44 114.042 28.44C114.149 28.44 114.234 28.4453 114.298 28.456V30.312H113.786C113.231 30.312 112.762 30.4187 112.378 30.632C111.994 30.8453 111.706 31.1493 111.514 31.544C111.322 31.9387 111.226 32.424 111.226 33V37H109.274ZM118.746 37.112C117.871 37.112 117.124 36.9307 116.506 36.568C115.898 36.2053 115.434 35.704 115.114 35.064C114.804 34.4133 114.65 33.6613 114.65 32.808C114.65 31.9547 114.81 31.2027 115.13 30.552C115.46 29.8907 115.93 29.3733 116.538 29C117.156 28.6267 117.898 28.44 118.762 28.44C119.402 28.44 119.962 28.5573 120.442 28.792C120.922 29.016 121.322 29.3253 121.642 29.72C121.972 30.1147 122.218 30.5627 122.378 31.064C122.538 31.5653 122.612 32.0933 122.602 32.648C122.591 32.776 122.58 32.904 122.57 33.032C122.559 33.1493 122.543 33.2773 122.522 33.416H116.602C116.634 33.7893 116.73 34.1307 116.89 34.44C117.06 34.7493 117.295 34.9947 117.594 35.176C117.903 35.3573 118.287 35.448 118.746 35.448C119.012 35.448 119.268 35.416 119.514 35.352C119.759 35.2773 119.972 35.1707 120.154 35.032C120.346 34.8933 120.474 34.7173 120.538 34.504H122.49C122.351 35.112 122.095 35.608 121.722 35.992C121.348 36.376 120.9 36.6587 120.378 36.84C119.866 37.0213 119.322 37.112 118.746 37.112ZM116.634 31.96H120.698C120.698 31.608 120.618 31.288 120.458 31C120.298 30.712 120.068 30.488 119.77 30.328C119.482 30.1573 119.13 30.072 118.714 30.072C118.266 30.072 117.892 30.1627 117.594 30.344C117.295 30.5253 117.066 30.76 116.906 31.048C116.746 31.336 116.655 31.64 116.634 31.96Z" fill="#EEF2FF"/>
</svg>
