<svg width="18" height="18" viewBox="0 0 18 18" fill="none" xmlns="http://www.w3.org/2000/svg">
<path d="M6.74979 1.4375C8.56034 1.43754 10.0465 2.86765 10.1375 4.65625L10.1424 4.83008C10.1349 6.67069 8.69548 8.15614 6.87576 8.21484H6.84061C6.78637 8.20894 6.73194 8.21035 6.68045 8.21387C4.77731 8.14986 3.35725 6.66124 3.35721 4.83008C3.35721 2.96122 4.88093 1.4375 6.74979 1.4375ZM6.74979 1.5625C4.95114 1.5625 3.48221 3.03144 3.48221 4.83008C3.48225 6.59947 4.86557 8.02769 6.62674 8.08984L6.67752 8.0918L6.71658 8.08398C6.72253 8.08369 6.73202 8.08399 6.7449 8.08398C6.77338 8.08398 6.80953 8.08603 6.84647 8.08887L6.87674 8.09082L6.90799 8.08984C8.6462 8.00986 10.0083 6.58135 10.0174 4.83301V4.83008C10.0174 3.03146 8.54839 1.56254 6.74979 1.5625Z" fill="white" stroke="white"/>
<path d="M12.1825 8.26074C12.1789 8.22195 12.1897 8.19934 12.1952 8.19141C12.1978 8.18781 12.2 8.18658 12.2001 8.18652L12.2021 8.18555L12.2031 8.18457C12.266 8.17998 12.3386 8.17969 12.4199 8.17969H12.4472C13.8072 8.10511 14.87 6.98523 14.87 5.61719C14.8699 4.2013 13.7234 3.05487 12.3075 3.05469H12.2949C12.286 3.05487 12.2746 3.05193 12.2626 3.04004C12.2503 3.02775 12.245 3.01337 12.245 3C12.245 2.98694 12.2503 2.97132 12.2646 2.95703C12.2788 2.94287 12.2945 2.9375 12.3075 2.9375C13.7863 2.93769 14.995 4.14626 14.995 5.625C14.995 7.07156 13.8715 8.2396 12.4335 8.30957L12.3945 8.29688L12.289 8.30762C12.2652 8.30994 12.2306 8.30151 12.2031 8.28125C12.1902 8.27173 12.1846 8.26447 12.1825 8.26074Z" fill="white" stroke="white"/>
<path d="M6.8833 9.82812C8.19128 9.8282 9.47491 10.1401 10.4692 10.7393L10.6646 10.8633C11.5963 11.4844 12.0552 12.2889 12.0552 13.1104C12.055 13.9341 11.6012 14.7442 10.6646 15.3711C9.63793 16.0555 8.27007 16.4121 6.87744 16.4121C5.48389 16.4121 4.10924 16.0552 3.09131 15.3721L3.08838 15.3701L2.91846 15.252C2.0973 14.6501 1.69971 13.8965 1.69971 13.125C1.69971 12.301 2.15235 11.4893 3.08936 10.8623C4.11579 10.1819 5.48853 9.82812 6.8833 9.82812ZM6.87744 9.95898C5.55014 9.95898 4.19262 10.2867 3.15771 10.9766C2.34959 11.5153 1.82471 12.2675 1.82471 13.1328C1.82484 13.9925 2.3593 14.7423 3.15576 15.2715V15.2725C4.19086 15.9667 5.5495 16.2969 6.87744 16.2969C8.20477 16.2968 9.56131 15.9661 10.5962 15.2725L10.5972 15.2734C11.4052 14.7347 11.9302 13.9825 11.9302 13.1172C11.93 12.2564 11.3934 11.5049 10.5952 10.9756C9.56055 10.2864 8.20404 9.95902 6.87744 9.95898Z" fill="white" stroke="white"/>
<path d="M13.7547 15.5625C13.4922 15.5625 13.2597 15.3825 13.2072 15.1125C13.1472 14.805 13.3422 14.5125 13.6422 14.445C14.1147 14.3475 14.5497 14.16 14.8872 13.8975C15.3147 13.575 15.5472 13.17 15.5472 12.7425C15.5472 12.315 15.3147 11.91 14.8947 11.595C14.5647 11.34 14.1522 11.16 13.6647 11.0475C13.3647 10.98 13.1697 10.68 13.2372 10.3725C13.3047 10.0725 13.6047 9.87751 13.9122 9.94501C14.5572 10.0875 15.1197 10.3425 15.5772 10.695C16.2747 11.22 16.6722 11.9625 16.6722 12.7425C16.6722 13.5225 16.2672 14.265 15.5697 14.7975C15.1047 15.1575 14.5197 15.42 13.8747 15.5475C13.8297 15.5625 13.7922 15.5625 13.7547 15.5625Z" fill="white"/>
</svg>
