<svg width="18" height="18" viewBox="0 0 18 18" fill="none" xmlns="http://www.w3.org/2000/svg">
<path d="M11.4229 2H14.4521C15.0048 2 15.2641 2.10777 15.3936 2.22949C15.5153 2.34401 15.625 2.56927 15.625 3.0752V8.1748C15.625 8.68073 15.5153 8.90599 15.3936 9.02051C15.2641 9.14223 15.0048 9.25 14.4521 9.25H11.4229C10.8702 9.25 10.6109 9.14223 10.4814 9.02051C10.3597 8.90599 10.25 8.68073 10.25 8.1748V3.0752C10.25 2.56927 10.3597 2.34401 10.4814 2.22949C10.6109 2.10777 10.8702 2 11.4229 2Z" fill="#283C85" stroke="#283C85"/>
<path d="M3.54785 8.75H6.57715C7.1298 8.75 7.38914 8.85777 7.51855 8.97949C7.64029 9.09401 7.75 9.31927 7.75 9.8252V14.9248C7.75 15.4307 7.64029 15.656 7.51855 15.7705C7.38914 15.8922 7.1298 16 6.57715 16H3.54785C2.9952 16 2.73586 15.8922 2.60645 15.7705C2.48471 15.656 2.375 15.4307 2.375 14.9248V9.8252L2.37988 9.64844C2.40255 9.26471 2.4999 9.07973 2.60645 8.97949C2.71966 8.873 2.93212 8.77725 3.35352 8.75488L3.54785 8.75Z" fill="#283C85" stroke="#283C85"/>
<path d="M16.125 14.925V12.825C16.125 11.7 15.645 11.25 14.4525 11.25H11.4225C10.23 11.25 9.75 11.7 9.75 12.825V14.925C9.75 16.05 10.23 16.5 11.4225 16.5H14.4525C15.645 16.5 16.125 16.05 16.125 14.925Z" fill="#283C85"/>
<path d="M8.25 5.175V3.075C8.25 1.95 7.77 1.5 6.5775 1.5H3.5475C2.355 1.5 1.875 1.95 1.875 3.075V5.175C1.875 6.3 2.355 6.75 3.5475 6.75H6.5775C7.77 6.75 8.25 6.3 8.25 5.175Z" fill="#283C85"/>
</svg>
