<svg width="171" height="49" viewBox="0 0 171 49" fill="none" xmlns="http://www.w3.org/2000/svg">
<rect width="171" height="49" rx="12" fill="#212121"/>
<path d="M28.5927 15.0824C27.093 14.2492 25.25 15.3337 25.25 17.0493V31.9507C25.25 33.6663 27.093 34.7507 28.5927 33.9176L42.004 26.4668C43.5471 25.6096 43.5471 23.3904 42.004 22.5331L28.5927 15.0824Z" fill="#71D0FF"/>
<path fill-rule="evenodd" clip-rule="evenodd" d="M39.7692 21.2915L28.5927 15.0824C27.4151 14.4282 26.0258 14.9563 25.4834 16.044L25.9697 16.5303L25.9811 16.5415L34.8507 25.0415C35.1408 25.3195 35.5984 25.3195 35.8885 25.0415L39.019 22.0415L39.0304 22.0303L39.7692 21.2915Z" fill="#A2D471"/>
<path fill-rule="evenodd" clip-rule="evenodd" d="M39.7692 27.7085L39.0304 26.9697L39.019 26.9585L35.8885 23.9585C35.5984 23.6805 35.1408 23.6805 34.8507 23.9585L25.9811 32.4585L25.9697 32.4697L25.4834 32.956C26.0258 34.0437 27.4151 34.5718 28.5927 33.9176L39.7692 27.7085Z" fill="#F17171"/>
<path fill-rule="evenodd" clip-rule="evenodd" d="M38.4051 20.5338L37.9749 20.964L34.8502 23.9585C34.7026 24.0999 34.6191 24.2955 34.6191 24.5C34.6191 24.7044 34.7026 24.9 34.8502 25.0415L37.9749 28.036L38.4051 28.4662L42.004 26.4668C43.5471 25.6096 43.5471 23.3904 42.004 22.5331L38.4051 20.5338Z" fill="#FFC44D"/>
<path fill-rule="evenodd" clip-rule="evenodd" d="M43.1613 24.5H25.25V31.9507C25.25 33.6663 27.093 34.7507 28.5927 33.9176L42.004 26.4668C42.7755 26.0382 43.1613 25.2691 43.1613 24.5Z" fill="#45B0E5"/>
<path fill-rule="evenodd" clip-rule="evenodd" d="M26.7999 34.09C27.3622 34.2762 28.0039 34.2447 28.5927 33.9176L39.7691 27.7084L39.0304 26.9697L39.019 26.9585L36.4536 24.5H34.2856L25.9811 32.4585L25.9697 32.4697L25.4834 32.956C25.6856 33.3614 26.0054 33.6891 26.3881 33.9068C26.5188 33.9811 26.6568 34.0426 26.7999 34.09Z" fill="#D64545"/>
<path fill-rule="evenodd" clip-rule="evenodd" d="M43.1613 24.5H34.6191C34.6191 24.7044 34.7026 24.9 34.8502 25.0415L37.9749 28.036L38.4051 28.4662L42.004 26.4668C42.229 26.3418 42.4212 26.1879 42.5806 26.0134C42.9336 25.627 43.1256 25.14 43.1568 24.6441C43.1598 24.5961 43.1613 24.5481 43.1613 24.5Z" fill="#E5B045"/>
<path d="M58.73 17.08C58.0033 17.08 57.3967 16.9267 56.91 16.62C56.43 16.3067 56.07 15.88 55.83 15.34C55.5967 14.7933 55.48 14.17 55.48 13.47C55.48 12.7767 55.6 12.16 55.84 11.62C56.08 11.0733 56.44 10.6433 56.92 10.33C57.4067 10.01 58.0167 9.85 58.75 9.85C59.27 9.85 59.7167 9.93333 60.09 10.1C60.47 10.26 60.7767 10.4833 61.01 10.77C61.2433 11.0567 61.4033 11.3933 61.49 11.78H60.61C60.51 11.4333 60.2933 11.1567 59.96 10.95C59.6333 10.7433 59.22 10.64 58.72 10.64C58.16 10.64 57.7067 10.7733 57.36 11.04C57.02 11.3 56.77 11.6433 56.61 12.07C56.45 12.49 56.37 12.9467 56.37 13.44C56.37 13.96 56.4533 14.4367 56.62 14.87C56.7867 15.3033 57.0467 15.65 57.4 15.91C57.7533 16.1633 58.2033 16.29 58.75 16.29C59.0833 16.29 59.38 16.2433 59.64 16.15C59.9067 16.0567 60.1267 15.9233 60.3 15.75C60.48 15.5767 60.6033 15.3767 60.67 15.15H61.62C61.52 15.5367 61.34 15.8767 61.08 16.17C60.8267 16.4567 60.5033 16.68 60.11 16.84C59.7167 17 59.2567 17.08 58.73 17.08ZM64.811 17.06C64.2577 17.06 63.7943 16.9467 63.421 16.72C63.0477 16.4867 62.7677 16.1667 62.581 15.76C62.401 15.3533 62.311 14.89 62.311 14.37C62.311 13.8433 62.4043 13.38 62.591 12.98C62.7777 12.5733 63.0577 12.2533 63.431 12.02C63.8043 11.7867 64.271 11.67 64.831 11.67C65.3843 11.67 65.8443 11.7867 66.211 12.02C66.5843 12.2533 66.861 12.5733 67.041 12.98C67.2277 13.38 67.321 13.8433 67.321 14.37C67.321 14.89 67.2277 15.3533 67.041 15.76C66.8543 16.1667 66.5743 16.4867 66.201 16.72C65.8343 16.9467 65.371 17.06 64.811 17.06ZM64.811 16.31C65.1977 16.31 65.511 16.2233 65.751 16.05C65.9977 15.8767 66.1777 15.6433 66.291 15.35C66.411 15.0567 66.471 14.73 66.471 14.37C66.471 14.01 66.411 13.6833 66.291 13.39C66.1777 13.0967 65.9977 12.8633 65.751 12.69C65.511 12.5167 65.1977 12.43 64.811 12.43C64.431 12.43 64.1177 12.5167 63.871 12.69C63.631 12.8633 63.451 13.0967 63.331 13.39C63.2177 13.6833 63.161 14.01 63.161 14.37C63.161 14.73 63.2177 15.0567 63.331 15.35C63.451 15.6433 63.631 15.8767 63.871 16.05C64.1177 16.2233 64.431 16.31 64.811 16.31ZM68.2583 17V11.73H69.0783L69.1183 12.36C69.2316 12.2 69.3583 12.07 69.4983 11.97C69.6449 11.87 69.8049 11.7967 69.9783 11.75C70.1583 11.6967 70.3483 11.67 70.5483 11.67C70.9149 11.67 71.2116 11.75 71.4383 11.91C71.6649 12.0633 71.8349 12.2667 71.9483 12.52C72.0683 12.34 72.2049 12.1867 72.3583 12.06C72.5183 11.9333 72.6949 11.8367 72.8883 11.77C73.0883 11.7033 73.3083 11.67 73.5483 11.67C73.9349 11.67 74.2449 11.7533 74.4783 11.92C74.7183 12.0867 74.8916 12.3133 74.9983 12.6C75.1049 12.88 75.1583 13.1967 75.1583 13.55V17H74.3083V13.98C74.3083 13.8067 74.2983 13.63 74.2783 13.45C74.2649 13.27 74.2249 13.1033 74.1583 12.95C74.0916 12.79 73.9916 12.6633 73.8583 12.57C73.7316 12.47 73.5516 12.42 73.3183 12.42C73.0983 12.42 72.9116 12.4733 72.7583 12.58C72.6116 12.68 72.4916 12.8167 72.3983 12.99C72.3049 13.1633 72.2383 13.35 72.1983 13.55C72.1583 13.7433 72.1383 13.9367 72.1383 14.13V17H71.2883V13.97C71.2883 13.8033 71.2783 13.63 71.2583 13.45C71.2449 13.27 71.2083 13.1033 71.1483 12.95C71.0949 12.79 71.0016 12.6633 70.8683 12.57C70.7416 12.47 70.5649 12.42 70.3383 12.42C70.0183 12.42 69.7683 12.5133 69.5883 12.7C69.4083 12.88 69.2816 13.1033 69.2083 13.37C69.1416 13.63 69.1083 13.8867 69.1083 14.14V17H68.2583ZM76.2516 17V11.73H77.1016V17H76.2516ZM76.6716 10.95C76.4983 10.95 76.3583 10.8967 76.2516 10.79C76.1516 10.6833 76.1016 10.5467 76.1016 10.38C76.1016 10.2133 76.155 10.08 76.2616 9.98C76.3683 9.87333 76.505 9.82 76.6716 9.82C76.825 9.82 76.9583 9.87333 77.0716 9.98C77.1916 10.0867 77.2516 10.22 77.2516 10.38C77.2516 10.5467 77.195 10.6833 77.0816 10.79C76.9683 10.8967 76.8316 10.95 76.6716 10.95ZM78.2391 17V11.73H79.0591L79.0991 12.53C79.2191 12.3367 79.3725 12.1767 79.5591 12.05C79.7458 11.9233 79.9491 11.83 80.1691 11.77C80.3958 11.7033 80.6158 11.67 80.8291 11.67C81.3425 11.67 81.7425 11.7767 82.0291 11.99C82.3225 12.2033 82.5291 12.4933 82.6491 12.86C82.7758 13.22 82.8391 13.63 82.8391 14.09V17H81.9891V14.32C81.9891 14.0733 81.9725 13.8367 81.9391 13.61C81.9125 13.3833 81.8525 13.18 81.7591 13C81.6725 12.82 81.5458 12.68 81.3791 12.58C81.2125 12.4733 80.9891 12.42 80.7091 12.42C80.3625 12.42 80.0658 12.5167 79.8191 12.71C79.5791 12.9033 79.3958 13.1633 79.2691 13.49C79.1491 13.8167 79.0891 14.1833 79.0891 14.59V17H78.2391ZM86.2373 19.36C85.8773 19.36 85.544 19.3033 85.2373 19.19C84.9307 19.0833 84.6707 18.9133 84.4573 18.68C84.244 18.4467 84.1007 18.15 84.0273 17.79H84.9073C84.9607 17.99 85.0607 18.15 85.2073 18.27C85.354 18.39 85.524 18.4733 85.7173 18.52C85.9107 18.5733 86.1007 18.6 86.2873 18.6C86.6473 18.6 86.9373 18.5267 87.1573 18.38C87.384 18.24 87.5473 18.0433 87.6473 17.79C87.7473 17.5433 87.7973 17.26 87.7973 16.94V16.21C87.684 16.41 87.534 16.5733 87.3473 16.7C87.1607 16.8267 86.9573 16.92 86.7373 16.98C86.5173 17.0333 86.2907 17.06 86.0573 17.06C85.524 17.06 85.0873 16.9433 84.7473 16.71C84.4073 16.47 84.154 16.15 83.9873 15.75C83.8273 15.3433 83.7473 14.8867 83.7473 14.38C83.7473 13.8733 83.8307 13.4167 83.9973 13.01C84.164 12.5967 84.4207 12.27 84.7673 12.03C85.114 11.79 85.5573 11.67 86.0973 11.67C86.404 11.67 86.714 11.7267 87.0273 11.84C87.3407 11.9533 87.5973 12.1367 87.7973 12.39L87.8373 11.73H88.6473V16.96C88.6473 17.4533 88.5573 17.88 88.3773 18.24C88.204 18.6 87.9373 18.8767 87.5773 19.07C87.224 19.2633 86.7773 19.36 86.2373 19.36ZM86.1773 16.31C86.5307 16.31 86.8273 16.22 87.0673 16.04C87.3073 15.86 87.4907 15.62 87.6173 15.32C87.744 15.02 87.8073 14.6933 87.8073 14.34C87.8073 13.9733 87.744 13.6467 87.6173 13.36C87.4973 13.0733 87.3173 12.8467 87.0773 12.68C86.8373 12.5133 86.534 12.43 86.1673 12.43C85.7873 12.43 85.4807 12.5167 85.2473 12.69C85.0207 12.8633 84.854 13.0967 84.7473 13.39C84.6473 13.6833 84.5973 14.01 84.5973 14.37C84.5973 14.7433 84.6507 15.0767 84.7573 15.37C84.864 15.6633 85.034 15.8933 85.2673 16.06C85.5007 16.2267 85.804 16.31 86.1773 16.31ZM95.0278 17.08C94.5811 17.08 94.1578 17.02 93.7578 16.9C93.3645 16.7733 93.0278 16.57 92.7478 16.29C92.4678 16.0033 92.2778 15.6233 92.1778 15.15H93.0878C93.1811 15.45 93.3311 15.6833 93.5378 15.85C93.7511 16.0167 93.9945 16.1333 94.2678 16.2C94.5411 16.26 94.8145 16.29 95.0878 16.29C95.3611 16.29 95.6145 16.2533 95.8478 16.18C96.0878 16.1 96.2811 15.9733 96.4278 15.8C96.5811 15.6267 96.6578 15.4033 96.6578 15.13C96.6578 14.9167 96.6178 14.7433 96.5378 14.61C96.4645 14.4767 96.3578 14.37 96.2178 14.29C96.0845 14.2033 95.9245 14.1333 95.7378 14.08C95.4911 14 95.2278 13.9333 94.9478 13.88C94.6678 13.8267 94.3911 13.7633 94.1178 13.69C93.8511 13.6167 93.6011 13.5233 93.3678 13.41C93.2411 13.3433 93.1178 13.2633 92.9978 13.17C92.8845 13.07 92.7845 12.9567 92.6978 12.83C92.6178 12.6967 92.5511 12.5467 92.4978 12.38C92.4511 12.2133 92.4278 12.03 92.4278 11.83C92.4278 11.53 92.4745 11.27 92.5678 11.05C92.6611 10.83 92.7878 10.6433 92.9478 10.49C93.1078 10.3367 93.2945 10.2133 93.5078 10.12C93.7211 10.0267 93.9478 9.96 94.1878 9.92C94.4345 9.87333 94.6811 9.85 94.9278 9.85C95.3345 9.85 95.7145 9.91333 96.0678 10.04C96.4278 10.16 96.7245 10.3567 96.9578 10.63C97.1978 10.9033 97.3278 11.2733 97.3478 11.74H96.4978C96.4645 11.46 96.3711 11.24 96.2178 11.08C96.0645 10.92 95.8745 10.8067 95.6478 10.74C95.4211 10.6733 95.1811 10.64 94.9278 10.64C94.7411 10.64 94.5511 10.6567 94.3578 10.69C94.1711 10.7233 93.9978 10.7833 93.8378 10.87C93.6845 10.95 93.5611 11.0633 93.4678 11.21C93.3745 11.35 93.3278 11.53 93.3278 11.75C93.3278 11.9233 93.3578 12.0767 93.4178 12.21C93.4845 12.3433 93.5711 12.4567 93.6778 12.55C93.7911 12.6367 93.9145 12.71 94.0478 12.77C94.3678 12.9033 94.7211 13.0033 95.1078 13.07C95.5011 13.13 95.8678 13.22 96.2078 13.34C96.4078 13.4067 96.5911 13.49 96.7578 13.59C96.9245 13.69 97.0645 13.8067 97.1778 13.94C97.2978 14.0733 97.3878 14.2267 97.4478 14.4C97.5145 14.5667 97.5478 14.7567 97.5478 14.97C97.5478 15.3567 97.4811 15.6867 97.3478 15.96C97.2145 16.2267 97.0311 16.4433 96.7978 16.61C96.5645 16.7767 96.2945 16.8967 95.9878 16.97C95.6878 17.0433 95.3678 17.08 95.0278 17.08ZM100.901 17.06C100.348 17.06 99.8846 16.9467 99.5113 16.72C99.1379 16.4867 98.8579 16.1667 98.6713 15.76C98.4913 15.3533 98.4013 14.89 98.4013 14.37C98.4013 13.8433 98.4946 13.38 98.6813 12.98C98.8679 12.5733 99.1479 12.2533 99.5213 12.02C99.8946 11.7867 100.361 11.67 100.921 11.67C101.475 11.67 101.935 11.7867 102.301 12.02C102.675 12.2533 102.951 12.5733 103.131 12.98C103.318 13.38 103.411 13.8433 103.411 14.37C103.411 14.89 103.318 15.3533 103.131 15.76C102.945 16.1667 102.665 16.4867 102.291 16.72C101.925 16.9467 101.461 17.06 100.901 17.06ZM100.901 16.31C101.288 16.31 101.601 16.2233 101.841 16.05C102.088 15.8767 102.268 15.6433 102.381 15.35C102.501 15.0567 102.561 14.73 102.561 14.37C102.561 14.01 102.501 13.6833 102.381 13.39C102.268 13.0967 102.088 12.8633 101.841 12.69C101.601 12.5167 101.288 12.43 100.901 12.43C100.521 12.43 100.208 12.5167 99.9613 12.69C99.7213 12.8633 99.5413 13.0967 99.4213 13.39C99.3079 13.6833 99.2513 14.01 99.2513 14.37C99.2513 14.73 99.3079 15.0567 99.4213 15.35C99.5413 15.6433 99.7213 15.8767 99.9613 16.05C100.208 16.2233 100.521 16.31 100.901 16.31ZM106.649 17.06C106.095 17.06 105.632 16.9467 105.259 16.72C104.885 16.4867 104.605 16.1667 104.419 15.76C104.239 15.3533 104.149 14.89 104.149 14.37C104.149 13.8433 104.242 13.38 104.429 12.98C104.615 12.5733 104.895 12.2533 105.269 12.02C105.642 11.7867 106.109 11.67 106.669 11.67C107.222 11.67 107.682 11.7867 108.049 12.02C108.422 12.2533 108.699 12.5733 108.879 12.98C109.065 13.38 109.159 13.8433 109.159 14.37C109.159 14.89 109.065 15.3533 108.879 15.76C108.692 16.1667 108.412 16.4867 108.039 16.72C107.672 16.9467 107.209 17.06 106.649 17.06ZM106.649 16.31C107.035 16.31 107.349 16.2233 107.589 16.05C107.835 15.8767 108.015 15.6433 108.129 15.35C108.249 15.0567 108.309 14.73 108.309 14.37C108.309 14.01 108.249 13.6833 108.129 13.39C108.015 13.0967 107.835 12.8633 107.589 12.69C107.349 12.5167 107.035 12.43 106.649 12.43C106.269 12.43 105.955 12.5167 105.709 12.69C105.469 12.8633 105.289 13.0967 105.169 13.39C105.055 13.6833 104.999 14.01 104.999 14.37C104.999 14.73 105.055 15.0567 105.169 15.35C105.289 15.6433 105.469 15.8767 105.709 16.05C105.955 16.2233 106.269 16.31 106.649 16.31ZM110.096 17V11.73H110.916L110.956 12.53C111.076 12.3367 111.229 12.1767 111.416 12.05C111.602 11.9233 111.806 11.83 112.026 11.77C112.252 11.7033 112.472 11.67 112.686 11.67C113.199 11.67 113.599 11.7767 113.886 11.99C114.179 12.2033 114.386 12.4933 114.506 12.86C114.632 13.22 114.696 13.63 114.696 14.09V17H113.846V14.32C113.846 14.0733 113.829 13.8367 113.796 13.61C113.769 13.3833 113.709 13.18 113.616 13C113.529 12.82 113.402 12.68 113.236 12.58C113.069 12.4733 112.846 12.42 112.566 12.42C112.219 12.42 111.922 12.5167 111.676 12.71C111.436 12.9033 111.252 13.1633 111.126 13.49C111.006 13.8167 110.946 14.1833 110.946 14.59V17H110.096Z" fill="#EEF2FF"/>
<path d="M61 37.128C59.848 37.128 58.872 36.888 58.072 36.408C57.272 35.9173 56.664 35.24 56.248 34.376C55.8427 33.5013 55.64 32.4933 55.64 31.352C55.64 30.488 55.752 29.704 55.976 29C56.2107 28.296 56.552 27.688 57 27.176C57.4587 26.6533 58.0187 26.2533 58.68 25.976C59.3413 25.688 60.104 25.544 60.968 25.544C61.8107 25.544 62.5627 25.6827 63.224 25.96C63.896 26.2267 64.4453 26.6213 64.872 27.144C65.3093 27.6667 65.6027 28.3067 65.752 29.064H63.688C63.6027 28.7013 63.4373 28.3973 63.192 28.152C62.9573 27.9067 62.6587 27.72 62.296 27.592C61.9333 27.464 61.5173 27.4 61.048 27.4C60.44 27.4 59.9227 27.5067 59.496 27.72C59.0693 27.9333 58.7227 28.2267 58.456 28.6C58.1893 28.9627 57.992 29.384 57.864 29.864C57.7467 30.3333 57.688 30.8347 57.688 31.368C57.688 32.0613 57.8 32.7067 58.024 33.304C58.2587 33.9013 58.6213 34.3813 59.112 34.744C59.6133 35.096 60.264 35.272 61.064 35.272C61.6293 35.272 62.1253 35.176 62.552 34.984C62.9893 34.792 63.3307 34.5147 63.576 34.152C63.832 33.7787 63.9707 33.32 63.992 32.776H60.696V31.048H66.008V31.784C66.008 32.8827 65.816 33.832 65.432 34.632C65.048 35.432 64.4827 36.0507 63.736 36.488C63 36.9147 62.088 37.128 61 37.128ZM71.1206 37.112C70.2566 37.112 69.51 36.936 68.8806 36.584C68.262 36.232 67.782 35.7307 67.4406 35.08C67.11 34.4293 66.9446 33.6667 66.9446 32.792C66.9446 31.9067 67.1153 31.144 67.4566 30.504C67.798 29.8533 68.278 29.3467 68.8966 28.984C69.5153 28.6213 70.2566 28.44 71.1206 28.44C71.974 28.44 72.71 28.6213 73.3286 28.984C73.9473 29.3467 74.422 29.8587 74.7526 30.52C75.0833 31.1707 75.2486 31.9387 75.2486 32.824C75.2486 33.688 75.0833 34.4453 74.7526 35.096C74.4326 35.736 73.9633 36.232 73.3446 36.584C72.726 36.936 71.9846 37.112 71.1206 37.112ZM71.1046 35.336C71.638 35.336 72.0646 35.2187 72.3846 34.984C72.7153 34.7493 72.9553 34.44 73.1046 34.056C73.254 33.672 73.3286 33.256 73.3286 32.808C73.3286 32.36 73.254 31.9387 73.1046 31.544C72.9553 31.1493 72.7153 30.8347 72.3846 30.6C72.0646 30.3547 71.638 30.232 71.1046 30.232C70.5713 30.232 70.1393 30.3547 69.8086 30.6C69.478 30.8347 69.238 31.1493 69.0886 31.544C68.9393 31.928 68.8646 32.3493 68.8646 32.808C68.8646 33.256 68.9393 33.6773 69.0886 34.072C69.2486 34.456 69.4886 34.7653 69.8086 35C70.1393 35.224 70.5713 35.336 71.1046 35.336ZM80.3475 37.112C79.4835 37.112 78.7368 36.936 78.1075 36.584C77.4888 36.232 77.0088 35.7307 76.6675 35.08C76.3368 34.4293 76.1715 33.6667 76.1715 32.792C76.1715 31.9067 76.3422 31.144 76.6835 30.504C77.0248 29.8533 77.5048 29.3467 78.1235 28.984C78.7422 28.6213 79.4835 28.44 80.3475 28.44C81.2008 28.44 81.9368 28.6213 82.5555 28.984C83.1742 29.3467 83.6488 29.8587 83.9795 30.52C84.3102 31.1707 84.4755 31.9387 84.4755 32.824C84.4755 33.688 84.3102 34.4453 83.9795 35.096C83.6595 35.736 83.1902 36.232 82.5715 36.584C81.9528 36.936 81.2115 37.112 80.3475 37.112ZM80.3315 35.336C80.8648 35.336 81.2915 35.2187 81.6115 34.984C81.9422 34.7493 82.1822 34.44 82.3315 34.056C82.4808 33.672 82.5555 33.256 82.5555 32.808C82.5555 32.36 82.4808 31.9387 82.3315 31.544C82.1822 31.1493 81.9422 30.8347 81.6115 30.6C81.2915 30.3547 80.8648 30.232 80.3315 30.232C79.7982 30.232 79.3662 30.3547 79.0355 30.6C78.7048 30.8347 78.4648 31.1493 78.3155 31.544C78.1662 31.928 78.0915 32.3493 78.0915 32.808C78.0915 33.256 78.1662 33.6773 78.3155 34.072C78.4755 34.456 78.7155 34.7653 79.0355 35C79.3662 35.224 79.7982 35.336 80.3315 35.336ZM89.6384 40.856C89.0197 40.856 88.4384 40.7547 87.8944 40.552C87.361 40.36 86.9077 40.0507 86.5344 39.624C86.1717 39.208 85.9264 38.6693 85.7984 38.008H87.7984C87.8624 38.264 87.9904 38.472 88.1824 38.632C88.3744 38.792 88.5984 38.904 88.8544 38.968C89.121 39.0427 89.393 39.08 89.6704 39.08C90.193 39.08 90.6037 38.9733 90.9024 38.76C91.2117 38.5467 91.4304 38.2533 91.5584 37.88C91.6864 37.5173 91.7504 37.1173 91.7504 36.68V35.88C91.5584 36.1893 91.313 36.4347 91.0144 36.616C90.7264 36.7973 90.417 36.9253 90.0864 37C89.7664 37.064 89.4464 37.096 89.1264 37.096C88.2517 37.096 87.537 36.904 86.9824 36.52C86.4384 36.136 86.0384 35.624 85.7824 34.984C85.5264 34.3333 85.3984 33.6187 85.3984 32.84C85.3984 32.0293 85.537 31.2933 85.8144 30.632C86.1024 29.96 86.529 29.4267 87.0944 29.032C87.6704 28.6373 88.3904 28.44 89.2544 28.44C89.7557 28.44 90.225 28.5307 90.6624 28.712C91.1104 28.8827 91.4837 29.144 91.7824 29.496L91.9104 28.568H93.7184V36.264C93.7184 37.2133 93.5797 38.0293 93.3024 38.712C93.0357 39.4053 92.6037 39.9333 92.0064 40.296C91.409 40.6693 90.6197 40.856 89.6384 40.856ZM89.5264 35.368C90.0277 35.368 90.4437 35.2507 90.7744 35.016C91.105 34.7707 91.3557 34.4507 91.5264 34.056C91.697 33.6507 91.7824 33.2133 91.7824 32.744C91.7824 32.264 91.697 31.832 91.5264 31.448C91.3664 31.064 91.121 30.76 90.7904 30.536C90.4704 30.312 90.0544 30.2 89.5424 30.2C88.9984 30.2 88.5664 30.3227 88.2464 30.568C87.9264 30.8133 87.6917 31.1387 87.5424 31.544C87.4037 31.9387 87.3344 32.36 87.3344 32.808C87.3344 33.2773 87.409 33.7093 87.5584 34.104C87.7077 34.488 87.9424 34.7973 88.2624 35.032C88.5824 35.256 89.0037 35.368 89.5264 35.368ZM95.289 37V25.688H97.241V37H95.289ZM102.589 37.112C101.714 37.112 100.967 36.9307 100.349 36.568C99.7408 36.2053 99.2768 35.704 98.9568 35.064C98.6474 34.4133 98.4928 33.6613 98.4928 32.808C98.4928 31.9547 98.6528 31.2027 98.9728 30.552C99.3034 29.8907 99.7728 29.3733 100.381 29C100.999 28.6267 101.741 28.44 102.605 28.44C103.245 28.44 103.805 28.5573 104.285 28.792C104.765 29.016 105.165 29.3253 105.485 29.72C105.815 30.1147 106.061 30.5627 106.221 31.064C106.381 31.5653 106.455 32.0933 106.445 32.648C106.434 32.776 106.423 32.904 106.413 33.032C106.402 33.1493 106.386 33.2773 106.365 33.416H100.445C100.477 33.7893 100.573 34.1307 100.733 34.44C100.903 34.7493 101.138 34.9947 101.437 35.176C101.746 35.3573 102.13 35.448 102.589 35.448C102.855 35.448 103.111 35.416 103.357 35.352C103.602 35.2773 103.815 35.1707 103.997 35.032C104.189 34.8933 104.317 34.7173 104.381 34.504H106.333C106.194 35.112 105.938 35.608 105.565 35.992C105.191 36.376 104.743 36.6587 104.221 36.84C103.709 37.0213 103.165 37.112 102.589 37.112ZM100.477 31.96H104.541C104.541 31.608 104.461 31.288 104.301 31C104.141 30.712 103.911 30.488 103.613 30.328C103.325 30.1573 102.973 30.072 102.557 30.072C102.109 30.072 101.735 30.1627 101.437 30.344C101.138 30.5253 100.909 30.76 100.749 31.048C100.589 31.336 100.498 31.64 100.477 31.96ZM112.133 37V25.688H116.389C117.243 25.688 117.979 25.8213 118.597 26.088C119.227 26.344 119.712 26.7547 120.053 27.32C120.405 27.8853 120.581 28.6267 120.581 29.544C120.581 30.4187 120.389 31.1493 120.005 31.736C119.621 32.3227 119.099 32.7653 118.437 33.064C117.776 33.352 117.019 33.496 116.165 33.496H114.133V37H112.133ZM114.133 31.704H116.133C116.869 31.704 117.461 31.528 117.909 31.176C118.357 30.824 118.581 30.2693 118.581 29.512C118.581 28.8507 118.395 28.3547 118.021 28.024C117.648 27.6827 117.072 27.512 116.293 27.512H114.133V31.704ZM121.837 37V25.688H123.789V37H121.837ZM128.049 37.112C127.654 37.112 127.281 37.0587 126.929 36.952C126.577 36.8453 126.262 36.6907 125.985 36.488C125.708 36.2747 125.484 36.0133 125.313 35.704C125.153 35.384 125.073 35.0107 125.073 34.584C125.073 34.04 125.18 33.5973 125.393 33.256C125.606 32.904 125.894 32.6373 126.257 32.456C126.63 32.2747 127.052 32.152 127.521 32.088C127.99 32.0133 128.481 31.976 128.993 31.976H130.641C130.641 31.6027 130.582 31.2827 130.465 31.016C130.348 30.7387 130.161 30.52 129.905 30.36C129.66 30.2 129.34 30.12 128.945 30.12C128.689 30.12 128.449 30.152 128.225 30.216C128.012 30.2693 127.825 30.36 127.665 30.488C127.516 30.6053 127.409 30.76 127.345 30.952H125.345C125.42 30.5147 125.569 30.1413 125.793 29.832C126.028 29.512 126.31 29.2507 126.641 29.048C126.982 28.8453 127.356 28.696 127.761 28.6C128.166 28.4933 128.577 28.44 128.993 28.44C130.22 28.44 131.11 28.792 131.665 29.496C132.23 30.2 132.513 31.1867 132.513 32.456V37H130.785L130.737 35.912C130.492 36.2747 130.198 36.5413 129.857 36.712C129.516 36.8827 129.185 36.9893 128.865 37.032C128.545 37.0853 128.273 37.112 128.049 37.112ZM128.433 35.528C128.86 35.528 129.238 35.448 129.569 35.288C129.9 35.128 130.161 34.904 130.353 34.616C130.556 34.328 130.657 33.9973 130.657 33.624V33.352H129.121C128.865 33.352 128.609 33.3627 128.353 33.384C128.108 33.3947 127.884 33.4373 127.681 33.512C127.478 33.576 127.313 33.6773 127.185 33.816C127.068 33.9547 127.009 34.152 127.009 34.408C127.009 34.664 127.073 34.872 127.201 35.032C127.34 35.192 127.516 35.3147 127.729 35.4C127.953 35.4853 128.188 35.528 128.433 35.528ZM137.785 40.856C137.134 40.856 136.499 40.7653 135.881 40.584C135.273 40.4133 134.707 40.12 134.185 39.704L134.889 38.136C135.251 38.424 135.657 38.648 136.105 38.808C136.553 38.9787 137.043 39.064 137.577 39.064C138.419 39.064 139.033 38.8507 139.417 38.424C139.811 37.9973 140.009 37.416 140.009 36.68V36.056C139.817 36.3013 139.582 36.504 139.305 36.664C139.027 36.824 138.729 36.9413 138.409 37.016C138.089 37.0907 137.763 37.128 137.433 37.128C136.611 37.128 135.955 36.9627 135.465 36.632C134.985 36.2907 134.638 35.8267 134.425 35.24C134.211 34.6427 134.105 33.9653 134.105 33.208V28.568H136.041V32.776C136.041 33.0747 136.062 33.3787 136.105 33.688C136.147 33.9973 136.233 34.28 136.361 34.536C136.489 34.792 136.675 35 136.921 35.16C137.177 35.3093 137.513 35.384 137.929 35.384C138.473 35.384 138.894 35.2507 139.193 34.984C139.491 34.7173 139.694 34.3707 139.801 33.944C139.918 33.5173 139.977 33.064 139.977 32.584V28.568H141.929V36.2C141.929 36.9147 141.854 37.5547 141.705 38.12C141.555 38.696 141.315 39.1867 140.985 39.592C140.654 39.9973 140.227 40.3067 139.705 40.52C139.182 40.744 138.542 40.856 137.785 40.856Z" fill="#EEF2FF"/>
</svg>
