<svg width="14" height="13" viewBox="0 0 14 13" fill="none" xmlns="http://www.w3.org/2000/svg">
<path d="M5.42398 7.49474C5.04065 7.11207 4.80731 6.59207 4.80731 6.00874C4.80731 4.84007 5.74865 3.89807 6.91665 3.89807C7.49465 3.89807 8.02665 4.13207 8.40331 4.51474" stroke="#D0D5DD" stroke-width="1.5" stroke-linecap="round" stroke-linejoin="round"/>
<path d="M8.98674 6.38281C8.83208 7.24281 8.15474 7.92148 7.29541 8.07748" stroke="#D0D5DD" stroke-width="1.5" stroke-linecap="round" stroke-linejoin="round"/>
<path d="M3.35333 9.5651C2.29533 8.73444 1.39933 7.5211 0.75 6.00844C1.406 4.4891 2.308 3.2691 3.37267 2.43177C4.43067 1.59444 5.65133 1.13977 6.91667 1.13977C8.18933 1.13977 9.40933 1.6011 10.474 2.44444" stroke="#D0D5DD" stroke-width="1.5" stroke-linecap="round" stroke-linejoin="round"/>
<path d="M11.882 3.91077C12.3406 4.5201 12.744 5.22343 13.0833 6.0081C11.772 9.0461 9.45464 10.8761 6.91664 10.8761C6.3413 10.8761 5.77397 10.7828 5.22864 10.6008" stroke="#D0D5DD" stroke-width="1.5" stroke-linecap="round" stroke-linejoin="round"/>
<path d="M12.1749 0.75L1.65887 11.266" stroke="#D0D5DD" stroke-width="1.5" stroke-linecap="round" stroke-linejoin="round"/>
</svg>
