<svg width="18" height="18" viewBox="0 0 18 18" fill="none" xmlns="http://www.w3.org/2000/svg">
<path d="M5.25 2.5625H9C9.01306 2.5625 9.02868 2.56774 9.04297 2.58203C9.05726 2.59632 9.0625 2.61194 9.0625 2.625C9.0625 2.63806 9.05726 2.65368 9.04297 2.66797C9.02868 2.68226 9.01306 2.6875 9 2.6875H5.25C4.10401 2.6875 3.15541 2.96568 2.49805 3.62305C1.84068 4.28041 1.5625 5.22901 1.5625 6.375V11.625C1.5625 12.771 1.84068 13.7196 2.49805 14.377C3.15541 15.0343 4.10401 15.3125 5.25 15.3125H12.75C13.896 15.3125 14.8446 15.0343 15.502 14.377C16.1593 13.7196 16.4375 12.771 16.4375 11.625V8.625C16.4375 8.61194 16.4427 8.59632 16.457 8.58203C16.4713 8.56774 16.4869 8.5625 16.5 8.5625C16.5131 8.5625 16.5287 8.56774 16.543 8.58203C16.5573 8.59632 16.5625 8.61194 16.5625 8.625V11.625C16.5625 12.8988 16.1976 13.8356 15.5791 14.4541C14.9606 15.0726 14.0238 15.4375 12.75 15.4375H5.25C3.97616 15.4375 3.03941 15.0726 2.4209 14.4541C1.80239 13.8356 1.4375 12.8988 1.4375 11.625V6.375C1.4375 5.10116 1.80239 4.16441 2.4209 3.5459C3.03941 2.92739 3.97616 2.5625 5.25 2.5625Z" fill="white" stroke="white"/>
<path d="M5.24292 6.68555C5.25862 6.68369 5.26991 6.68805 5.27905 6.69531L5.28296 6.69824L7.63062 8.57324C8.02006 8.88532 8.52042 9.02535 8.99585 9.02539C9.4718 9.02539 9.97337 8.88503 10.363 8.57227L10.365 8.57031C10.3876 8.55201 10.4214 8.55303 10.4441 8.58105V8.58203L10.449 8.58789C10.4581 8.59915 10.4635 8.61426 10.4617 8.63086C10.4599 8.64667 10.4526 8.65539 10.4451 8.66113L10.4363 8.66797L10.4285 8.6748C10.0523 8.98633 9.5331 9.15234 8.99976 9.15234C8.46752 9.15233 7.94675 8.98697 7.56128 8.67285L7.5564 8.66895L5.21069 6.79492C5.19586 6.78198 5.18723 6.76528 5.1853 6.74902C5.18354 6.73338 5.18773 6.722 5.19507 6.71289C5.20825 6.69667 5.22591 6.68757 5.24292 6.68555Z" fill="white" stroke="white"/>
<path d="M13.4352 6.3313C13.6893 6.17894 14.0834 6.17896 14.3375 6.3313L14.5231 6.44165V6.44263C14.8198 6.62246 15.0376 6.67993 15.2028 6.67993H15.5846C15.5735 6.68934 15.5633 6.69809 15.5533 6.70532C15.4932 6.74908 15.389 6.80472 15.2311 6.81177C15.0733 6.81879 14.8185 6.77909 14.4547 6.56079L14.2672 6.44849L14.2584 6.4436L14.193 6.41138C14.1293 6.38472 14.0722 6.37308 14.0387 6.36743C13.9844 6.35829 13.9306 6.35474 13.8824 6.35474C13.8345 6.35475 13.7812 6.35837 13.7272 6.36743C13.6936 6.37308 13.6358 6.38459 13.5719 6.41138L13.5055 6.44458L13.3102 6.55688L13.3053 6.55981C13.0444 6.71443 12.8371 6.77944 12.6842 6.802L12.858 6.62817C12.8614 6.62695 12.8653 6.62653 12.8688 6.62524C12.9616 6.59125 13.0825 6.53666 13.2311 6.44751L13.2321 6.44849L13.4274 6.33521L13.4352 6.3313ZM16.4449 3.59399L16.3922 3.48853C16.3571 3.41843 16.3128 3.37256 16.2985 3.35767C16.276 3.33433 16.2536 3.31428 16.233 3.2981C16.1913 3.26532 16.1446 3.23577 16.0944 3.21021C16.0439 3.1845 15.9867 3.16088 15.9225 3.13989L15.6998 3.08423L15.693 3.08325L15.4098 3.03833C15.1658 2.99649 14.8832 2.78549 14.774 2.56274L14.5563 2.1272L14.441 1.93579C14.4019 1.87958 14.3616 1.83065 14.3219 1.78833C14.2823 1.7462 14.2394 1.70724 14.193 1.67407C14.1556 1.64734 14.0843 1.60125 13.9889 1.57739L13.7145 1.50903L13.5309 1.69263C13.5244 1.69816 13.5164 1.70494 13.5074 1.71313C13.4816 1.73678 13.4508 1.76809 13.4166 1.80786C13.348 1.88763 13.2712 1.99694 13.1998 2.14478L12.9918 2.56958H12.9908C12.8824 2.79093 12.5919 3.00526 12.3512 3.04614L12.0719 3.09106C11.9061 3.11707 11.7717 3.16256 11.6647 3.21899C11.6115 3.24703 11.5631 3.2788 11.5211 3.31372C11.5004 3.33096 11.4787 3.35125 11.4576 3.37427C11.4436 3.38966 11.4045 3.43275 11.3727 3.49634L11.3199 3.60181V3.71997C11.32 3.79589 11.3375 3.86124 11.3473 3.8938C11.3611 3.93991 11.3805 3.98946 11.4069 4.04126C11.4601 4.146 11.542 4.26138 11.6617 4.3811L11.9196 4.63892C12.1104 4.83438 12.2151 5.19896 12.1588 5.4563L12.1217 5.6145H12.1207L12.1198 5.62134C12.0464 5.95137 12.061 6.18117 12.1041 6.33228L12.2135 6.71606C12.2078 6.71227 12.2021 6.70903 12.1969 6.70532C12.1354 6.6606 12.0473 6.5769 11.9899 6.42603C11.9329 6.27627 11.8906 6.02021 11.984 5.60571L12.0211 5.44849L12.0201 5.44751C12.044 5.34776 12.0382 5.25953 12.0328 5.21509C12.0263 5.16021 12.0142 5.10859 12.0016 5.0647C11.9827 4.99933 11.9393 4.86958 11.8522 4.76489L11.8375 4.74731L11.8209 4.73169L11.5612 4.47192H11.5621C11.2055 4.10924 11.1407 3.77039 11.2164 3.52856C11.2829 3.32242 11.4799 3.11179 11.8629 3.0061L12.0387 2.96802L12.318 2.92407L12.3483 2.91919L12.3776 2.9104C12.4916 2.87779 12.5889 2.81189 12.6403 2.77368C12.6889 2.73748 12.7935 2.65519 12.8619 2.5354L12.8698 2.52173L12.8766 2.50806L13.0865 2.08032L13.0856 2.07935C13.3265 1.59223 13.6353 1.42993 13.8756 1.42993C14.1159 1.43015 14.4229 1.59323 14.6637 2.08032L14.8737 2.50806L14.8756 2.51099C14.919 2.59783 14.9784 2.65813 15.0035 2.68286C15.0374 2.71615 15.0729 2.7456 15.1051 2.76978C15.1519 2.80487 15.254 2.87646 15.3727 2.9104L15.402 2.91919L15.4323 2.92407L15.7106 2.96802H15.7115C16.2108 3.05223 16.4578 3.29303 16.5338 3.52856C16.6093 3.76257 16.5532 4.1002 16.192 4.46899L15.9293 4.73169L15.9127 4.74731L15.8981 4.76489C15.8109 4.86958 15.7675 4.99933 15.7487 5.0647C15.736 5.10859 15.724 5.16021 15.7174 5.21509C15.7121 5.2595 15.7054 5.34785 15.7291 5.44751V5.44849L15.7662 5.60571C15.8442 5.95175 15.8246 6.18655 15.7838 6.34204L15.7018 6.09595C15.7019 6.08022 15.7033 6.06244 15.7028 6.04321C15.7 5.93746 15.6866 5.79716 15.6451 5.61743L15.6442 5.6145L15.608 5.46313C15.5488 5.19892 15.652 4.84151 15.8414 4.6438L16.1041 4.3811C16.331 4.15417 16.4449 3.91401 16.4449 3.71216V3.59399Z" fill="white" stroke="white"/>
</svg>
