<svg width="34" height="34" viewBox="0 0 34 34" fill="none" xmlns="http://www.w3.org/2000/svg">
<rect width="33.05" height="33.05" fill="#4CBD91" fill-opacity="0.08"/>
<path d="M20.4536 13.5199C20.4039 13.5128 20.3542 13.5128 20.3044 13.5199C19.2033 13.4844 18.3295 12.5821 18.3295 11.4739C18.3295 10.3443 19.2459 9.42078 20.3826 9.42078C21.5121 9.42078 22.4357 10.3372 22.4357 11.4739C22.4286 12.5821 21.5548 13.4844 20.4536 13.5199Z" fill="#59B29F"/>
<path d="M22.7696 18.4431C21.9739 18.9759 20.8585 19.1748 19.8284 19.0398C20.0984 18.4573 20.2405 17.8108 20.2476 17.1288C20.2476 16.4184 20.0913 15.7435 19.7929 15.1538C20.8443 15.0118 21.9597 15.2107 22.7624 15.7435C23.8849 16.4823 23.8849 17.6971 22.7696 18.4431Z" fill="#59B29F"/>
<path d="M12.5751 13.5199C12.6248 13.5128 12.6745 13.5128 12.7243 13.5199C13.8254 13.4844 14.6992 12.5821 14.6992 11.4739C14.6992 10.3372 13.7828 9.42078 12.6461 9.42078C11.5166 9.42078 10.6001 10.3372 10.6001 11.4739C10.6001 12.5821 11.4739 13.4844 12.5751 13.5199Z" fill="#59B29F"/>
<path d="M12.6532 17.1288C12.6532 17.8179 12.8024 18.4715 13.0724 19.0611C12.0707 19.1677 11.0264 18.9546 10.2591 18.4502C9.13665 17.7042 9.13665 16.4894 10.2591 15.7435C11.0193 15.232 12.092 15.026 13.1008 15.1396C12.8095 15.7364 12.6532 16.4113 12.6532 17.1288Z" fill="#59B29F"/>
<path d="M16.6103 19.2744C16.5534 19.2673 16.4895 19.2673 16.4255 19.2744C15.1184 19.2317 14.0741 18.159 14.0741 16.8376C14.0812 15.4878 15.1681 14.3938 16.525 14.3938C17.8748 14.3938 18.9688 15.4878 18.9688 16.8376C18.9617 18.159 17.9245 19.2317 16.6103 19.2744Z" fill="#59B29F"/>
<path d="M14.3014 20.7448C13.2287 21.4623 13.2287 22.6416 14.3014 23.352C15.5233 24.169 17.5267 24.169 18.7486 23.352C19.8213 22.6345 19.8213 21.4552 18.7486 20.7448C17.5338 19.9278 15.5304 19.9278 14.3014 20.7448Z" fill="#59B29F"/>
</svg>
