<svg width="18" height="18" viewBox="0 0 18 18" fill="none" xmlns="http://www.w3.org/2000/svg">
<path d="M7.125 11.9375H10.875C10.8881 11.9375 10.9037 11.9427 10.918 11.957C10.9323 11.9713 10.9375 11.9869 10.9375 12C10.9375 12.0131 10.9323 12.0287 10.918 12.043C10.9037 12.0573 10.8881 12.0625 10.875 12.0625H7.125C7.11194 12.0625 7.09632 12.0573 7.08203 12.043C7.06774 12.0287 7.0625 12.0131 7.0625 12C7.0625 11.9869 7.06774 11.9713 7.08203 11.957C7.09632 11.9427 7.11194 11.9375 7.125 11.9375Z" fill="white" stroke="white"/>
<path d="M7.03978 1.6134C7.66879 1.33622 8.49638 1.37128 9.69896 1.83215L9.70482 1.83411C9.70823 1.83541 9.72204 1.8423 9.73216 1.86633C9.73938 1.88346 9.73934 1.90008 9.73314 1.91711L7.53783 7.01184C7.52663 7.03704 7.50114 7.05286 7.47728 7.05286H5.33958C4.8454 7.05291 4.37411 7.14798 3.92259 7.33899L3.91478 7.3429C3.91478 7.34289 3.91325 7.34339 3.91087 7.34387C3.908 7.34445 3.90432 7.34484 3.90013 7.34485C3.89801 7.34485 3.87942 7.34175 3.85326 7.32043C3.84843 7.31398 3.84191 7.30567 3.83958 7.29407C3.83673 7.27962 3.83967 7.26847 3.84251 7.26184L3.84349 7.25793L5.239 3.92786L5.23802 3.92688C5.24559 3.90962 5.25295 3.89433 5.25853 3.88098C5.26629 3.86241 5.26939 3.85515 5.27415 3.84387C5.28168 3.82609 5.28128 3.82781 5.27611 3.83704L5.29076 3.81458L5.30345 3.7843C5.84018 2.54764 6.40536 1.89299 7.03978 1.6134ZM7.95775 1.56262C7.36292 1.56262 6.86187 1.76502 6.43529 2.18079C6.03101 2.57492 5.70972 3.14527 5.40599 3.85266L5.3972 3.87219C5.3944 3.87792 5.39085 3.88524 5.38744 3.8927C5.38377 3.90071 5.37956 3.911 5.37474 3.92297H5.37376L4.39134 6.25598L4.0681 7.02356L4.89818 6.94836C5.04862 6.9347 5.19073 6.92787 5.33958 6.92786H7.43138L7.56224 6.62512L9.36888 2.42493L9.58763 1.91907L9.06224 1.7511C8.67113 1.62628 8.30419 1.56265 7.95775 1.56262Z" fill="white" stroke="white"/>
<path d="M9.92414 1.92297V1.92395L11.6937 2.66614L11.6966 2.66711C12.6962 3.07998 13.3019 3.49118 13.6781 3.9425L13.6829 3.94836C13.7478 4.02414 13.807 4.11088 13.8665 4.21008L13.8704 4.21692L13.8753 4.22375C13.9332 4.31327 13.9904 4.43246 14.0306 4.55286L14.0374 4.57239L14.0452 4.59192C14.0609 4.62838 14.0858 4.69343 14.0989 4.755L14.1029 4.77356L14.1087 4.79309C14.2716 5.34055 14.2096 6.08844 13.7825 7.16028C13.778 7.1709 13.7699 7.1822 13.7572 7.19055C13.7442 7.19897 13.7295 7.20227 13.7171 7.20227C13.7139 7.20225 13.7082 7.20217 13.7015 7.20129C13.6978 7.2008 13.6946 7.19973 13.6927 7.19934C13.368 7.10309 13.0132 7.05287 12.6527 7.05286H7.47786C7.46234 7.05286 7.44146 7.04233 7.42707 7.02551C7.42177 7.01467 7.41646 7.00321 7.41536 6.99133C7.41402 6.9768 7.41676 6.96749 7.41829 6.96399L7.41926 6.96301L9.59407 1.91516L9.597 1.91028C9.60445 1.89239 9.62594 1.86469 9.66047 1.8468C9.68302 1.83513 9.697 1.83385 9.70247 1.83411C9.76653 1.85585 9.81933 1.87928 9.92414 1.92297ZM9.51594 2.42004L7.87336 6.22961L7.57258 6.92786H12.6605C12.8687 6.92789 13.074 6.94747 13.2855 6.98157L13.7093 7.04993L13.8411 6.64075C14.0639 5.94857 14.1415 5.33103 13.9798 4.78528H13.9779C13.9683 4.7471 13.9606 4.71595 13.9525 4.69153L13.9456 4.67102L13.9407 4.65149L13.931 4.62415L13.8587 4.44739C13.8337 4.39211 13.8063 4.33925 13.7738 4.28723L13.7718 4.2843L13.6956 4.16321C13.665 4.11706 13.6269 4.06618 13.5843 4.01672H13.5853C13.5827 4.01361 13.5791 4.01105 13.5765 4.00793C13.5753 4.00653 13.5748 4.00445 13.5736 4.00305H13.5726C13.2205 3.58405 12.6747 3.22943 11.9661 2.91223L11.6488 2.77649L10.1683 2.15637L9.71223 1.96497L9.51594 2.42004Z" fill="white" stroke="white"/>
<path d="M5.34766 6.92749H12.668C13.0488 6.92753 13.4103 6.9812 13.7402 7.08472L13.7451 7.08569C15.2966 7.55443 16.3896 9.02555 16.3896 10.6501V12.1121C16.3896 12.2622 16.3834 12.408 16.376 12.5574C16.2986 13.9317 15.8649 14.9116 15.1562 15.5525C14.4439 16.1966 13.3826 16.5623 11.9248 16.5623H6.0752C5.8896 16.5623 5.71426 16.5491 5.53223 16.5281L5.50879 16.5261C4.28074 16.4421 3.37402 16.0555 2.75391 15.4324C2.13352 14.8088 1.74534 13.8937 1.66113 12.6492L1.66016 12.6316L1.6582 12.615L1.63379 12.3777C1.62799 12.2924 1.625 12.202 1.625 12.1121V10.6501C1.625 9.16418 2.50944 7.82113 3.87988 7.22437C4.34059 7.02699 4.8359 6.92749 5.34766 6.92749ZM5.33984 7.05249C4.84556 7.05251 4.37445 7.14855 3.92285 7.3396L3.91797 7.34155C2.59647 7.91555 1.74219 9.21261 1.74219 10.6501V12.1121C1.74219 12.2907 1.75899 12.4651 1.77344 12.6101V12.6111C1.84948 13.751 2.17342 14.6803 2.83105 15.3425C3.48424 16.0002 4.39791 16.3237 5.5127 16.4031V16.4041C5.7031 16.4269 5.87824 16.4451 6.06738 16.4451H11.918C13.2192 16.445 14.2832 16.16 15.0391 15.4832C15.8004 14.8014 16.1622 13.8004 16.2266 12.5603C16.234 12.4265 16.2422 12.2779 16.2422 12.1121V10.6501C16.2422 9.07128 15.1902 7.66346 13.6924 7.2019L13.6875 7.20093L13.4385 7.13647C13.1842 7.08114 12.9157 7.05249 12.6445 7.05249H5.33984Z" fill="white" stroke="white"/>
<path d="M1.68 11.2125C1.3725 11.2125 1.1175 10.9575 1.1175 10.65V8.45247C1.1175 6.08997 2.79 4.04997 5.1 3.59997C5.3025 3.56247 5.5125 3.63747 5.6475 3.79497C5.775 3.95247 5.8125 4.17747 5.73 4.36497L4.4175 7.49997C4.3575 7.63497 4.2525 7.73997 4.125 7.79997C2.985 8.29497 2.25 9.41247 2.25 10.65C2.2425 10.9575 1.995 11.2125 1.68 11.2125ZM4.2 5.11497C3.24 5.65497 2.5425 6.59997 2.325 7.70247C2.655 7.36497 3.0375 7.07997 3.4725 6.86997L4.2 5.11497Z" fill="white"/>
<path d="M16.32 11.2125C16.0125 11.2125 15.7575 10.9575 15.7575 10.65C15.7575 9.29246 14.85 8.07746 13.56 7.67996C13.41 7.63496 13.2825 7.52996 13.215 7.38746C13.1475 7.24496 13.14 7.07996 13.2 6.93746C13.5525 6.05996 13.6425 5.42246 13.5 4.92746C13.485 4.85996 13.47 4.82996 13.4625 4.79996C13.365 4.58246 13.4175 4.32746 13.59 4.16246C13.7625 3.99746 14.025 3.95996 14.235 4.07246C15.87 4.92746 16.8825 6.60746 16.8825 8.45246V10.65C16.8825 10.9575 16.6275 11.2125 16.32 11.2125ZM14.4375 6.81746C14.91 7.03496 15.33 7.34246 15.6825 7.70996C15.54 6.97496 15.1875 6.30746 14.67 5.78246C14.6325 6.09746 14.5575 6.44246 14.4375 6.81746Z" fill="white"/>
</svg>
