<svg width="18" height="18" viewBox="0 0 18 18" fill="none" xmlns="http://www.w3.org/2000/svg">
<path d="M5.25 2.1875H12.75C14.3865 2.1875 15.2804 2.44444 15.793 2.95703C16.3056 3.46962 16.5625 4.36347 16.5625 6V12C16.5625 13.6365 16.3056 14.5304 15.793 15.043C15.2804 15.5556 14.3865 15.8125 12.75 15.8125H5.25C3.61347 15.8125 2.71962 15.5556 2.20703 15.043C1.69444 14.5304 1.4375 13.6365 1.4375 12V6C1.4375 4.36347 1.69444 3.46962 2.20703 2.95703C2.71962 2.44444 3.61347 2.1875 5.25 2.1875ZM5.25 2.3125C4.56993 2.3125 3.99262 2.34365 3.51562 2.44434C3.0333 2.54618 2.61761 2.72661 2.2959 3.04883C1.97417 3.37122 1.79452 3.7876 1.69336 4.26953C1.59336 4.74598 1.5625 5.322 1.5625 6V12C1.5625 12.678 1.59336 13.254 1.69336 13.7305C1.79452 14.2124 1.97417 14.6288 2.2959 14.9512C2.61761 15.2734 3.0333 15.4538 3.51562 15.5557C3.99262 15.6564 4.56993 15.6875 5.25 15.6875H12.75C13.4301 15.6875 14.0074 15.6564 14.4844 15.5557C14.9667 15.4538 15.3824 15.2734 15.7041 14.9512C16.0258 14.6288 16.2055 14.2124 16.3066 13.7305C16.4066 13.254 16.4375 12.678 16.4375 12V6C16.4375 5.322 16.4066 4.74598 16.3066 4.26953C16.2055 3.7876 16.0258 3.37122 15.7041 3.04883C15.3824 2.72661 14.9667 2.54618 14.4844 2.44434C14.0074 2.34365 13.4301 2.3125 12.75 2.3125H5.25Z" fill="white" stroke="white"/>
<path d="M10.5 5.9375H14.25C14.2631 5.9375 14.2787 5.94274 14.293 5.95703C14.3073 5.97132 14.3125 5.98694 14.3125 6C14.3125 6.01306 14.3073 6.02868 14.293 6.04297C14.2787 6.05726 14.2631 6.0625 14.25 6.0625H10.5C10.4869 6.0625 10.4713 6.05726 10.457 6.04297C10.4427 6.02868 10.4375 6.01306 10.4375 6C10.4375 5.98694 10.4427 5.97132 10.457 5.95703C10.4713 5.94274 10.4869 5.9375 10.5 5.9375Z" fill="white" stroke="white"/>
<path d="M11.25 8.9375H14.25C14.2631 8.9375 14.2787 8.94274 14.293 8.95703C14.3073 8.97132 14.3125 8.98694 14.3125 9C14.3125 9.01306 14.3073 9.02868 14.293 9.04297C14.2787 9.05726 14.2631 9.0625 14.25 9.0625H11.25C11.2369 9.0625 11.2213 9.05726 11.207 9.04297C11.1927 9.02868 11.1875 9.01306 11.1875 9C11.1875 8.98694 11.1927 8.97132 11.207 8.95703C11.2213 8.94274 11.2369 8.9375 11.25 8.9375Z" fill="white" stroke="white"/>
<path d="M12.75 11.9375H14.25C14.2631 11.9375 14.2787 11.9427 14.293 11.957C14.3073 11.9713 14.3125 11.9869 14.3125 12C14.3125 12.0131 14.3073 12.0287 14.293 12.043C14.2787 12.0573 14.2631 12.0625 14.25 12.0625H12.75C12.7369 12.0625 12.7213 12.0573 12.707 12.043C12.6927 12.0287 12.6875 12.0131 12.6875 12C12.6875 11.9869 12.6927 11.9713 12.707 11.957C12.7213 11.9427 12.7369 11.9375 12.75 11.9375Z" fill="white" stroke="white"/>
<path d="M6.375 9.02994C5.3175 9.02994 4.455 8.16744 4.455 7.10994C4.455 6.05244 5.3175 5.18994 6.375 5.18994C7.4325 5.18994 8.295 6.05244 8.295 7.10994C8.295 8.16744 7.4325 9.02994 6.375 9.02994ZM6.375 6.31494C5.94 6.31494 5.58 6.67494 5.58 7.10994C5.58 7.54494 5.94 7.90494 6.375 7.90494C6.81 7.90494 7.17 7.54494 7.17 7.10994C7.17 6.67494 6.81 6.31494 6.375 6.31494Z" fill="white"/>
<path d="M9 12.8099C8.715 12.8099 8.4675 12.5924 8.4375 12.2999C8.355 11.4899 7.7025 10.8374 6.885 10.7624C6.54 10.7324 6.195 10.7324 5.85 10.7624C5.0325 10.8374 4.38 11.4824 4.2975 12.2999C4.2675 12.6074 3.99 12.8399 3.6825 12.8024C3.375 12.7724 3.15 12.4949 3.18 12.1874C3.315 10.8374 4.3875 9.76495 5.745 9.64495C6.1575 9.60745 6.5775 9.60745 6.99 9.64495C8.34 9.77245 9.42 10.8449 9.555 12.1874C9.585 12.4949 9.36 12.7724 9.0525 12.8024C9.0375 12.8099 9.015 12.8099 9 12.8099Z" fill="white"/>
</svg>
