<svg width="18" height="18" viewBox="0 0 18 18" fill="none" xmlns="http://www.w3.org/2000/svg">
<path d="M6 9.08752H11.25C11.2631 9.08752 11.2787 9.09277 11.293 9.10706C11.3073 9.12135 11.3125 9.13696 11.3125 9.15002C11.3125 9.16309 11.3073 9.1787 11.293 9.19299C11.2787 9.20728 11.2631 9.21252 11.25 9.21252H6C5.98694 9.21252 5.97132 9.20728 5.95703 9.19299C5.94274 9.1787 5.9375 9.16309 5.9375 9.15002C5.9375 9.13696 5.94274 9.12135 5.95703 9.10706C5.97132 9.09277 5.98694 9.08752 6 9.08752Z" fill="white" stroke="white"/>
<path d="M6 12.0875H9.28516C9.29819 12.0876 9.31389 12.0928 9.32812 12.1071C9.34236 12.1213 9.34766 12.137 9.34766 12.15C9.34766 12.1631 9.34236 12.1787 9.32812 12.193C9.31389 12.2072 9.29819 12.2125 9.28516 12.2125H6C5.98694 12.2125 5.97132 12.2073 5.95703 12.193C5.94274 12.1787 5.9375 12.1631 5.9375 12.15C5.9375 12.137 5.94274 12.1213 5.95703 12.1071C5.97132 12.0928 5.98694 12.0875 6 12.0875Z" fill="white" stroke="white"/>
<path d="M7.5 1.4375H10.5C10.8806 1.4375 11.2538 1.44853 11.542 1.62305C11.7742 1.76373 12.0625 2.0855 12.0625 3C12.0625 3.38062 12.0515 3.75378 11.877 4.04199C11.7363 4.27425 11.4145 4.5625 10.5 4.5625H7.5C7.11938 4.5625 6.74622 4.55147 6.45801 4.37695C6.22575 4.23627 5.9375 3.9145 5.9375 3C5.9375 2.0855 6.22575 1.76373 6.45801 1.62305C6.74622 1.44853 7.11938 1.4375 7.5 1.4375ZM7.5 1.5625C7.32543 1.5625 7.14022 1.56214 6.98145 1.58105C6.81937 1.6004 6.61235 1.64694 6.43359 1.79492C6.24836 1.94846 6.16127 2.15318 6.11719 2.34766C6.07463 2.5355 6.0625 2.75652 6.0625 3C6.0625 3.24348 6.07463 3.4645 6.11719 3.65234C6.16127 3.84682 6.24836 4.05154 6.43359 4.20508C6.61235 4.35306 6.81937 4.3996 6.98145 4.41895C7.14022 4.43786 7.32543 4.4375 7.5 4.4375H10.5C10.7435 4.4375 10.9645 4.42537 11.1523 4.38281C11.3468 4.33873 11.5515 4.25164 11.7051 4.06641C11.8531 3.88765 11.8996 3.68063 11.9189 3.51855C11.9379 3.35978 11.9375 3.17457 11.9375 3C11.9375 2.75652 11.9254 2.5355 11.8828 2.34766C11.8387 2.15318 11.7516 1.94846 11.5664 1.79492C11.3876 1.64694 11.1806 1.6004 11.0186 1.58105C10.8598 1.56214 10.6746 1.5625 10.5 1.5625H7.5Z" fill="white" stroke="white"/>
<path d="M12.0049 2.95178C13.4577 3.0308 14.3672 3.4132 14.9316 4.07776C15.5074 4.75599 15.8125 5.83008 15.8125 7.4928V11.9928C15.8125 13.542 15.596 14.6498 14.9795 15.3805C14.3797 16.0914 13.2957 16.5621 11.25 16.5621H6.75C4.7045 16.5621 3.62033 16.0915 3.02051 15.3815C2.40406 14.6516 2.1875 13.545 2.1875 11.9996V7.49963C2.18754 5.83302 2.49277 4.75775 3.06836 4.07971C3.6325 3.41542 4.54178 3.03488 5.99512 2.95959C6.00834 2.95897 6.0268 2.96393 6.04297 2.97815C6.05744 2.99092 6.06289 3.00382 6.06348 3.01624C6.06445 3.03685 6.05729 3.05 6.04883 3.0592C6.03967 3.06903 6.02572 3.07673 6.00586 3.07776H6.00195C4.91825 3.13881 3.93839 3.33353 3.25879 4.05334C2.58389 4.76822 2.31254 5.88623 2.3125 7.49963V11.9996C2.3125 13.3763 2.43627 14.5452 3.13477 15.3395C3.84856 16.1511 5.03293 16.4371 6.75 16.4371H11.25C12.9671 16.4371 14.1514 16.1511 14.8652 15.3395C15.5637 14.5452 15.6875 13.3763 15.6875 11.9996V7.49963C15.6875 5.88623 15.4161 4.76822 14.7412 4.05334C14.0616 3.33353 13.0818 3.13881 11.998 3.07776H11.9941C11.9829 3.07715 11.9685 3.07227 11.9551 3.05725C11.9414 3.0419 11.9358 3.02442 11.9365 3.0094C11.9371 2.99815 11.9429 2.98388 11.958 2.97034C11.9731 2.95685 11.99 2.95126 12.0049 2.95178Z" fill="white" stroke="white"/>
</svg>
