<svg width="18" height="18" viewBox="0 0 18 18" fill="none" xmlns="http://www.w3.org/2000/svg">
<path d="M15.735 8.35254C15.7481 8.35255 15.7637 8.35779 15.778 8.37207C15.7923 8.38635 15.7975 8.40198 15.7975 8.41504V11.7832C15.8012 13.5742 15.4176 14.7346 14.697 15.4561C13.9762 16.1775 12.8162 16.5625 11.0251 16.5625H6.97527C5.18028 16.5625 4.02018 16.1774 3.29949 15.4561C2.57871 14.7345 2.195 13.5739 2.195 11.7822V8.41504C2.195 8.40197 2.20024 8.38636 2.21453 8.37207C2.22882 8.35778 2.24444 8.35254 2.2575 8.35254C2.27056 8.35254 2.28618 8.35778 2.30047 8.37207C2.31476 8.38636 2.32 8.40197 2.32 8.41504V11.7822C2.32 13.3508 2.59241 14.5634 3.39324 15.3643C4.19409 16.1651 5.40665 16.4375 6.97527 16.4375H11.0173C12.5859 16.4375 13.7984 16.1651 14.5993 15.3643C15.4001 14.5634 15.6725 13.3508 15.6725 11.7822V8.41504C15.6725 8.40197 15.6778 8.38636 15.6921 8.37207C15.7064 8.3578 15.722 8.35254 15.735 8.35254Z" fill="white" stroke="white"/>
<path d="M7.25952 1.4375H10.7625C10.7823 1.4375 10.7964 1.44408 10.8064 1.45312C10.8114 1.45763 10.8163 1.46338 10.8201 1.4707L10.8279 1.49805L11.3298 6.50781C11.3985 7.19556 11.194 7.82455 10.7625 8.30762C10.3038 8.79602 9.68771 9.0625 8.99976 9.0625C8.30891 9.06244 7.69688 8.79462 7.2644 8.31348C6.82965 7.82973 6.62327 7.19806 6.69214 6.50781L7.19507 1.5C7.19687 1.48293 7.20518 1.46631 7.21851 1.4541C7.23091 1.44289 7.24463 1.43761 7.25952 1.4375ZM7.26538 2.0127L6.81519 6.51758C6.74902 7.1509 6.93759 7.767 7.35425 8.22461V8.22559C7.78438 8.70114 8.40734 8.91889 8.99976 8.91895C9.59232 8.91895 10.216 8.70134 10.6462 8.22559L10.6482 8.22363C11.0603 7.76244 11.2501 7.14917 11.1843 6.52051H11.1853L10.7351 2.0127L10.6902 1.5625H7.3103L7.26538 2.0127Z" fill="white" stroke="white"/>
<path d="M10.7329 1.4375H13.02C14.0605 1.4375 14.7256 1.65609 15.1675 2.05371C15.5568 2.4042 15.8398 2.95353 16.0024 3.80762L16.0649 4.19238L16.2729 6.25977V6.26074C16.3491 7.00963 16.1209 7.70758 15.6421 8.23633C15.1631 8.76508 14.4896 9.06239 13.7329 9.0625C12.4686 9.0625 11.3239 8.02853 11.1919 6.76758H11.1929L10.6675 1.51074C10.6665 1.49466 10.6723 1.47316 10.689 1.4541C10.6939 1.44852 10.6993 1.44477 10.7046 1.44238C10.7101 1.44 10.7194 1.4375 10.7329 1.4375ZM11.355 2.0625L10.8579 2.1123L11.3228 6.75488V6.75684C11.4465 7.9456 12.5284 8.9375 13.7329 8.9375C14.4347 8.93739 15.0803 8.66726 15.5474 8.16211L15.5503 8.1582C16.0129 7.64739 16.215 6.97234 16.1509 6.27637L16.1499 6.27148L15.9399 4.20898L15.939 4.20117L15.938 4.19238L15.8882 3.87402C15.7607 3.15159 15.5421 2.56064 15.0962 2.15527C14.5805 1.68669 13.8694 1.5625 13.02 1.5625H11.355V2.0625Z" fill="white" stroke="white"/>
<path d="M4.94212 1.4375H7.23021C7.24104 1.43755 7.26121 1.44166 7.2849 1.4668C7.28832 1.47045 7.29106 1.47429 7.29271 1.47949C7.2945 1.4853 7.29588 1.49567 7.29466 1.51074L6.77025 6.76562C6.63909 8.02728 5.49501 9.06239 4.23021 9.0625C3.47337 9.0625 2.8001 8.76517 2.32103 8.23633C1.84202 7.70753 1.61403 7.0098 1.69017 6.26074V6.25879L1.89037 4.21582C2.04054 3.12527 2.34915 2.45897 2.79564 2.05566C3.18302 1.7059 3.73988 1.49448 4.57005 1.44727L4.94212 1.4375ZM4.94212 1.5625C4.09399 1.56254 3.38198 1.68426 2.86497 2.1543C2.35444 2.61853 2.13997 3.32837 2.01732 4.20605L2.01537 4.22559L1.81224 6.27344C1.739 6.97766 1.95308 7.65165 2.41185 8.1582C2.874 8.66849 3.52288 8.9375 4.23021 8.9375C5.43074 8.93739 6.52456 7.94916 6.64037 6.75488L7.10521 2.1123L7.1599 1.5625H4.94212Z" fill="white" stroke="white"/>
<path d="M10.875 17.0625H7.125C6.8175 17.0625 6.5625 16.8075 6.5625 16.5V14.625C6.5625 13.05 7.425 12.1875 9 12.1875C10.575 12.1875 11.4375 13.05 11.4375 14.625V16.5C11.4375 16.8075 11.1825 17.0625 10.875 17.0625ZM7.6875 15.9375H10.3125V14.625C10.3125 13.68 9.945 13.3125 9 13.3125C8.055 13.3125 7.6875 13.68 7.6875 14.625V15.9375Z" fill="white"/>
</svg>
