<svg width="18" height="18" viewBox="0 0 18 18" fill="none" xmlns="http://www.w3.org/2000/svg">
<path d="M8.25 14.5625H15.75C15.7631 14.5625 15.7787 14.5677 15.793 14.582C15.8073 14.5963 15.8125 14.6119 15.8125 14.625C15.8125 14.6381 15.8073 14.6537 15.793 14.668C15.7787 14.6823 15.7631 14.6875 15.75 14.6875H8.25C8.23694 14.6875 8.22132 14.6823 8.20703 14.668C8.19274 14.6537 8.1875 14.6381 8.1875 14.625C8.1875 14.6119 8.19274 14.5963 8.20703 14.582C8.22132 14.5677 8.23694 14.5625 8.25 14.5625Z" fill="white" stroke="white"/>
<path d="M8.25 9.3125H15.75C15.7631 9.3125 15.7787 9.31774 15.793 9.33203C15.8073 9.34632 15.8125 9.36194 15.8125 9.375C15.8125 9.38806 15.8073 9.40368 15.793 9.41797C15.7787 9.43226 15.7631 9.4375 15.75 9.4375H8.25C8.23694 9.4375 8.22132 9.43226 8.20703 9.41797C8.19274 9.40368 8.1875 9.38806 8.1875 9.375C8.1875 9.36194 8.19274 9.34632 8.20703 9.33203C8.22132 9.31774 8.23694 9.3125 8.25 9.3125Z" fill="white" stroke="white"/>
<path d="M8.25 4.0625H15.75C15.7631 4.0625 15.7787 4.06774 15.793 4.08203C15.8073 4.09632 15.8125 4.11194 15.8125 4.125C15.8125 4.13806 15.8073 4.15368 15.793 4.16797C15.7787 4.18226 15.7631 4.1875 15.75 4.1875H8.25C8.23694 4.1875 8.22132 4.18226 8.20703 4.16797C8.19274 4.15368 8.1875 4.13806 8.1875 4.125C8.1875 4.11194 8.19274 4.09632 8.20703 4.08203C8.22132 4.06774 8.23694 4.0625 8.25 4.0625Z" fill="white" stroke="white"/>
<path d="M5.24992 2.56433C5.26968 2.56433 5.28442 2.57153 5.29387 2.58093C5.3033 2.59036 5.31045 2.60511 5.31047 2.62488C5.31047 2.64469 5.30331 2.65938 5.29387 2.66882L3.04387 4.91882C3.03549 4.9272 3.0287 4.93131 3.02336 4.93347C3.01754 4.93582 3.00969 4.93738 2.99992 4.93738C2.99019 4.93737 2.98229 4.93581 2.97648 4.93347C2.97116 4.9313 2.96429 4.92713 2.95598 4.91882L2.20598 4.16882C2.19657 4.15938 2.18937 4.14463 2.18937 4.12488C2.18939 4.10511 2.19655 4.09036 2.20598 4.08093C2.21541 4.0715 2.23015 4.06435 2.24992 4.06433C2.26968 4.06433 2.28442 4.07153 2.29387 4.08093L2.99992 4.78699L5.20598 2.58093C5.21541 2.5715 5.23015 2.56435 5.24992 2.56433Z" fill="white" stroke="white"/>
<path d="M3 10.6875C2.8575 10.6875 2.715 10.635 2.6025 10.5225L1.8525 9.77246C1.635 9.55496 1.635 9.19496 1.8525 8.97746C2.07 8.75996 2.43 8.75996 2.6475 8.97746L3 9.32996L4.8525 7.47746C5.07 7.25996 5.43 7.25996 5.6475 7.47746C5.865 7.69496 5.865 8.05496 5.6475 8.27246L3.3975 10.5225C3.285 10.635 3.1425 10.6875 3 10.6875Z" fill="white"/>
<path d="M3 15.9375C2.8575 15.9375 2.715 15.885 2.6025 15.7725L1.8525 15.0225C1.635 14.805 1.635 14.445 1.8525 14.2275C2.07 14.01 2.43 14.01 2.6475 14.2275L3 14.58L4.8525 12.7275C5.07 12.51 5.43 12.51 5.6475 12.7275C5.865 12.945 5.865 13.305 5.6475 13.5225L3.3975 15.7725C3.285 15.885 3.1425 15.9375 3 15.9375Z" fill="white"/>
</svg>
