<svg width="18" height="18" viewBox="0 0 18 18" fill="none" xmlns="http://www.w3.org/2000/svg">
<path d="M6.16504 1.4375H11.835C13.3835 1.4375 14.2201 1.69447 14.7012 2.20312C15.1907 2.7209 15.4375 3.62859 15.4375 5.28027V13.7246C15.4375 14.4859 15.2805 14.9325 15.1201 15.1914C14.9626 15.4456 14.7807 15.5528 14.6611 15.6016C14.5456 15.6465 14.351 15.6898 14.0801 15.6191C13.801 15.5464 13.4 15.342 12.9033 14.8145C12.6496 14.5415 12.2946 14.3457 11.8691 14.3809C11.4843 14.4065 11.1382 14.6104 10.9023 14.9248V14.9258L10.1445 15.9375L10.1436 15.9395C9.83746 16.3514 9.41007 16.5625 9 16.5625C8.58993 16.5625 8.16254 16.3514 7.85645 15.9395L7.85547 15.9375L7.09766 14.9258V14.9248L7.00586 14.8135C6.78067 14.566 6.48008 14.4037 6.13867 14.3809H6.12988L6.12207 14.3799C5.90499 14.3726 5.69719 14.4243 5.50977 14.5186L5.40234 14.4219C5.61608 14.3053 5.8397 14.2471 6.05957 14.2471H6.13086L6.27832 14.2637C6.57325 14.3147 6.85761 14.4698 7.08203 14.7129L7.18945 14.8418L7.94727 15.8545L7.94824 15.8564C8.20638 16.1987 8.57628 16.4208 8.99609 16.4209C9.41591 16.4209 9.78578 16.1987 10.0439 15.8564L10.0449 15.8545L10.7998 14.8457C11.0453 14.5236 11.3729 14.323 11.7197 14.2637L11.8691 14.2471C12.2657 14.2256 12.6799 14.3914 12.9912 14.7256L12.9932 14.7275C13.3057 15.0606 13.5895 15.2751 13.8408 15.3975C14.0649 15.5065 14.3569 15.5858 14.6201 15.4775L14.6221 15.4766C14.7894 15.4069 14.9034 15.2813 14.9766 15.1748C15.0538 15.0623 15.1142 14.9302 15.1602 14.791C15.2523 14.512 15.3047 14.1524 15.3047 13.7246V5.28027C15.3047 4.59543 15.2755 4.0162 15.1826 3.53906C15.0891 3.0589 14.9242 2.6419 14.623 2.31641C14.3183 1.98719 13.9205 1.80192 13.46 1.69727C13.0074 1.59447 12.4628 1.5625 11.8271 1.5625H6.16504C5.5293 1.5625 4.9848 1.59442 4.53223 1.69727C4.07173 1.80191 3.67482 1.98722 3.37012 2.31641C3.0688 2.64196 2.90313 3.05873 2.80957 3.53906C2.71667 4.0162 2.6875 4.59543 2.6875 5.28027V13.7246C2.6875 14.1556 2.74066 14.5174 2.83301 14.7969C2.87903 14.9361 2.93889 15.0687 3.01758 15.1816C3.08967 15.2851 3.20417 15.4079 3.37207 15.4756V15.4775C3.37453 15.4786 3.37741 15.4785 3.37988 15.4795C3.3823 15.4804 3.38428 15.4825 3.38672 15.4834V15.4814C3.64622 15.5814 3.93123 15.5046 4.15137 15.3975C4.4007 15.276 4.68251 15.064 4.99219 14.7354C5.09459 14.6311 5.20312 14.545 5.31445 14.4746L4.70801 15.1416L4.71387 15.1465V15.1475L4.71973 15.1523L4.73047 15.1621C4.40257 15.4381 4.13021 15.5652 3.92285 15.6191C3.64706 15.6908 3.44853 15.646 3.33398 15.6006L3.33105 15.5986C3.2168 15.5541 3.03693 15.4506 2.87988 15.1973C2.71977 14.9388 2.5625 14.4902 2.5625 13.7246V5.28027C2.5625 3.62859 2.80934 2.7209 3.29883 2.20312C3.77992 1.69447 4.61645 1.4375 6.16504 1.4375Z" fill="white" stroke="white"/>
<path d="M6 5.1875H12C12.0131 5.1875 12.0287 5.19274 12.043 5.20703C12.0573 5.22132 12.0625 5.23694 12.0625 5.25C12.0625 5.26306 12.0573 5.27868 12.043 5.29297C12.0287 5.30726 12.0131 5.3125 12 5.3125H6C5.98694 5.3125 5.97132 5.30726 5.95703 5.29297C5.94274 5.27868 5.9375 5.26306 5.9375 5.25C5.9375 5.23694 5.94274 5.22132 5.95703 5.20703C5.97132 5.19274 5.98694 5.1875 6 5.1875Z" fill="white" stroke="white"/>
<path d="M6.75 8.1875H11.25C11.2631 8.1875 11.2787 8.19274 11.293 8.20703C11.3073 8.22132 11.3125 8.23694 11.3125 8.25C11.3125 8.26306 11.3073 8.27868 11.293 8.29297C11.2787 8.30726 11.2631 8.3125 11.25 8.3125H6.75C6.73694 8.3125 6.72132 8.30726 6.70703 8.29297C6.69274 8.27868 6.6875 8.26306 6.6875 8.25C6.6875 8.23694 6.69274 8.22132 6.70703 8.20703C6.72132 8.19274 6.73694 8.1875 6.75 8.1875Z" fill="white" stroke="white"/>
</svg>
